<?xml version="1.0" encoding="UTF-8"?>
<svg id="Vrstva_1" xmlns="http://www.w3.org/2000/svg" version="1.1" viewBox="0 0 593 221.84">
  <!-- Generator: Adobe Illustrator 29.4.0, SVG Export Plug-In . SVG Version: 2.1.0 Build 152)  -->
  <defs>
    <style>
      .st0 {
        fill: none;
      }

      .st1 {
        fill: #302658;
      }
    </style>
  </defs>
  <rect class="st0" x="-65.19" y="-71.36" width="721.17" height="361.1"/>
  <g>
    <path class="st1" d="M533.85,211.4c-1.51.77-3.25,1.16-5.21,1.16s-3.59-.33-5.11-.98c-1.52-.65-2.81-1.58-3.89-2.76-1.09-1.19-1.92-2.6-2.5-4.25-.59-1.65-.88-3.47-.88-5.47,0-1.89.3-3.64.9-5.26.6-1.61,1.46-3.02,2.58-4.23,1.12-1.2,2.45-2.15,4-2.84s3.26-1.03,5.16-1.03c1.48,0,2.99.3,4.54.9s2.8,1.55,3.77,2.86l4.95-3.92c-.72-.96-1.6-1.79-2.63-2.48s-2.13-1.26-3.3-1.73c-1.17-.46-2.39-.81-3.66-1.03s-2.49-.33-3.66-.33c-2.82,0-5.44.45-7.84,1.34-2.41.9-4.5,2.17-6.27,3.82s-3.16,3.66-4.18,6.01c-1.01,2.36-1.52,5-1.52,7.92s.48,5.46,1.44,7.82c.96,2.36,2.3,4.38,4.02,6.09,1.72,1.7,3.78,3.03,6.17,3.97,2.39.95,5.01,1.42,7.86,1.42,3.13,0,5.86-.56,8.2-1.68s4.31-2.69,5.93-4.72l-5.21-3.66c-.93,1.27-2.15,2.3-3.66,3.07h0Z"/>
    <polygon class="st1" points="583.99 186.82 583.99 180.94 556.7 180.94 556.7 186.61 576.25 186.61 556.39 211.58 556.39 217.46 584.3 217.46 584.3 211.68 564.02 211.68 583.99 186.82"/>
    <rect class="st1" x="219.9" y="80.16" width="17.36" height="71.45"/>
    <polygon class="st1" points="315.77 126.78 315.47 126.78 286.81 80.16 267.13 80.16 267.13 151.61 283.88 151.61 283.48 104.89 283.78 104.89 312.54 151.61 332.12 151.61 332.12 80.16 315.37 80.16 315.77 126.78"/>
    <polygon class="st1" points="361.99 151.61 379.05 151.61 379.05 123.86 406.7 123.86 406.7 109.63 379.05 109.63 379.05 94.89 409.02 94.89 409.02 80.16 361.99 80.16 361.99 151.61"/>
    <path class="st1" d="M485.92,113.97c2.62-3.3,3.94-7.37,3.94-12.21,0-4.1-.77-7.53-2.32-10.29s-3.62-4.98-6.21-6.66c-2.59-1.68-5.52-2.88-8.78-3.58-3.26-.71-6.61-1.06-10.04-1.06h-27.25v71.45h16.85v-28.36h5.88l15.51,28.36h20.18l-18.67-30.58c4.64-1.41,8.27-3.77,10.9-7.07h.01ZM471.64,106.5c-.78,1.14-1.77,2.02-2.99,2.62-1.22.61-2.57,1.03-4.06,1.26-1.49.24-2.94.35-4.36.35h-8.21v-16.65h9.23c1.28,0,2.62.1,4,.3,1.39.2,2.64.59,3.75,1.16s2.03,1.38,2.74,2.42c.71,1.04,1.07,2.41,1.07,4.09,0,1.82-.39,3.3-1.17,4.44h0Z"/>
    <path class="st1" d="M532.55,137.58h27.65l5.55,14.03h19.18l-29.67-71.45h-16.75l-29.97,71.45h18.77l5.25-14.03h-.01ZM546.58,99.23l8.88,24.53h-17.96l9.08-24.53Z"/>
    <path class="st1" d="M114.02,95.33c-2.17,0-4.15.34-5.95,1.02-1.81.67-3.38,1.6-4.72,2.77-1.36,1.17-2.44,2.55-3.25,4.12-.81,1.57-1.26,3.22-1.36,4.93h28.51c0-3.51-1.1-6.53-3.31-9.05-2.21-2.53-5.51-3.78-9.92-3.78h0Z"/>
    <path class="st1" d="M143.53,47.82c-3.13,0-6.19.22-9.2.65C126.87,20.59,101.4,0,71.2,0,35.17,0,5.85,29.32,5.85,65.35c0,23.54,12.51,44.2,31.23,55.71-4.84,9.12-7.59,19.51-7.59,30.53,0,36.03,29.32,65.35,65.35,65.35,26.81,0,49.9-16.24,59.96-39.39,30.68-5.36,54.07-32.18,54.07-64.37,0-36.04-29.32-65.35-65.35-65.35h.01ZM100.44,127.08c.94,1.54,2.16,2.86,3.65,3.99,1.49,1.13,3.15,2,5,2.64,1.84.63,3.76.94,5.74.94,3.52,0,6.48-.65,8.92-1.95,2.43-1.3,4.41-3,5.95-5.07l15.4,9.73c-3.16,4.59-7.33,8.12-12.51,10.6-5.17,2.47-11.19,3.72-18.03,3.72-5.05,0-9.83-.78-14.33-2.37-4.51-1.57-8.44-3.86-11.82-6.89-3.38-3.01-6.03-6.73-7.97-11.15-1.95-4.41-2.91-9.46-2.91-15.13s.96-10.47,2.84-14.92c1.89-4.46,4.45-8.25,7.7-11.36s7.07-5.51,11.49-7.22c4.41-1.71,9.18-2.57,14.32-2.57s9.5.84,13.65,2.5c4.14,1.66,7.69,4.08,10.67,7.22,2.97,3.16,5.29,6.99,6.96,11.49,1.66,4.51,2.5,9.63,2.5,15.4v2.7c0,.9-.05,1.76-.14,2.57h-48.78c.19,1.89.75,3.6,1.7,5.13h0ZM131.62,65.34c0,1.31-.05,2.62-.13,3.91-6.16,1.71-11.8,4.67-16.61,8.6,1.13-3.98,1.76-8.17,1.76-12.51,0-2.05-.15-4.07-.41-6.05,4.49-2.29,9.31-4.03,14.36-5.13.68,3.63,1.04,7.37,1.04,11.19h0ZM10.79,65.34c0-33.31,27.1-60.41,60.41-60.41,27.78,0,51.23,18.85,58.26,44.42-4.97,1.09-9.73,2.75-14.2,4.91-4.95-19.73-22.79-34.35-44.06-34.35-25.09,0-45.43,20.34-45.43,45.43,0,17.05,9.39,31.89,23.28,39.67-3.6,3.54-6.79,7.49-9.5,11.78-17.25-10.65-28.77-29.72-28.77-51.45h.01ZM75.25,110.58c-6.66,3.19-12.43,7.95-16.81,13.81-5.13-1.11-10.03-2.87-14.58-5.19,2.79-4.38,6.13-8.38,9.92-11.9,5.36,2.23,11.25,3.46,17.42,3.46,1.36,0,2.71-.07,4.05-.18h0ZM94.84,211.99c-33.31,0-60.41-27.1-60.41-60.41,0-10.14,2.51-19.71,6.95-28.11,4.46,2.29,9.2,4.09,14.18,5.31-3.9,6.7-6.14,14.49-6.14,22.79,0,25.09,20.34,45.43,45.43,45.43,15.45,0,29.08-7.72,37.29-19.5,3.7.65,7.51,1,11.4,1,1.85,0,3.68-.08,5.49-.23-9.87,19.96-30.45,33.72-54.18,33.72h-.01ZM151.3,173.08c-2.55.33-5.13.5-7.77.5-2.92,0-5.79-.21-8.6-.62,2.36-4.41,4.02-9.26,4.81-14.4,1.3.11,2.61.18,3.95.18,3.9,0,7.69-.5,11.3-1.42-.52,5.5-1.79,10.78-3.69,15.76ZM156.89,172.09c1.73-5.2,2.81-10.69,3.17-16.38,14.44-5.56,25.33-18.25,28.35-33.75h-30.15v-13.99h30.7c-2.58-22.73-21.86-40.37-45.28-40.37-2.45,0-4.85.2-7.2.57.04-.93.07-1.87.07-2.82,0-4.11-.39-8.14-1.12-12.04,2.65-.36,5.35-.54,8.1-.54,33.31,0,60.41,27.1,60.41,60.41,0,28.72-20.15,52.83-47.06,58.92h0Z"/>
  </g>
  <rect class="st0" x="-125.55" y="-131.72" width="841.89" height="481.82"/>
</svg>