<?xml version="1.0" encoding="UTF-8"?>
<svg id="Vrstva_1" data-name="Vrstva 1" xmlns="http://www.w3.org/2000/svg" viewBox="0 0 352.44 96.02">
  <defs>
    <style>
      .cls-1 {
        fill: none;
      }

      .cls-2 {
        fill: #4d453f;
      }

      .cls-2, .cls-3 {
        fill-rule: evenodd;
      }

      .cls-3 {
        fill: #ed1844;
      }
    </style>
  </defs>
  <path class="cls-2" d="M251.05,73.23c-.88,0-1.6-.69-1.6-1.55,0-.86.72-1.55,1.6-1.55.88,0,1.6.69,1.6,1.55,0,.86-.72,1.55-1.6,1.55M253.17,71.68c0-1.13-.95-2.05-2.12-2.05-1.17,0-2.12.92-2.12,2.05,0,1.13.95,2.05,2.12,2.05,1.17,0,2.12-.92,2.12-2.05"/>
  <path class="cls-2" d="M251.41,71.32c0,.18-.12.3-.34.3h-.32v-.61h.31c.22,0,.35.1.35.3h0ZM251.85,71.31h0c0-.21-.06-.37-.18-.48-.13-.13-.32-.19-.56-.19h-.78v2.01h.43v-.66h.27l.38.66h.49l-.44-.75c.23-.1.39-.29.39-.6h0ZM114.01,65.63v-.19c0-3.07,1.63-5.32,4.15-5.32s4.21,2.29,4.21,5.36v.19c0,3.06-1.63,5.36-4.15,5.36s-4.21-2.32-4.21-5.39M125.98,65.69v-.28c0-4.86-3.29-8.39-7.76-8.39-4.5,0-7.82,3.59-7.82,8.42v.28c0,4.86,3.29,8.36,7.76,8.36s7.82-3.56,7.82-8.39M131.57,65.69v-.31c0-3.22,1.85-5.26,4.02-5.26s3.93,2.01,3.93,5.29v.28c0,3.28-1.72,5.26-3.93,5.26s-4.02-2.04-4.02-5.26M143.15,65.75v-.43c0-5.54-3.19-8.3-6.58-8.3-2.43,0-3.89,1.36-4.95,2.94v-2.63h-3.61v21.08h3.61v-7.15c1.02,1.45,2.49,2.79,4.95,2.79,3.42,0,6.58-2.79,6.58-8.3M152.33,59.96c2.11,0,3.32,1.89,3.51,4.49h-7.15c.26-2.79,1.66-4.49,3.64-4.49M158.78,71.54l-1.88-2.17c-1.12,1.05-2.3,1.73-3.89,1.73-2.2,0-3.96-1.49-4.28-4.24h10.6c.03-.5.03-.99.03-1.21,0-4.92-2.43-8.64-7.02-8.64-4.15,0-7.21,3.53-7.21,8.45v.25c0,5.14,3.38,8.36,7.72,8.36,2.52,0,4.4-.96,5.94-2.54M169.95,57.02c-2.3,0-3.67,1.27-4.63,2.72v-2.41h-3.61v16.41h3.61v-9.94c0-2.26,1.31-3.62,3.19-3.62s3.03,1.27,3.03,3.56v10h3.61v-10.99c0-3.5-1.95-5.73-5.2-5.73M189.69,69.06v-.03c0-2.57-1.98-3.75-4.6-4.89-1.98-.87-3.32-1.42-3.32-2.51v-.06c0-.9.8-1.61,2.14-1.61s2.75.62,4.02,1.45l1.53-2.57c-1.6-1.11-3.61-1.76-5.49-1.76-3.16,0-5.59,1.86-5.59,4.8v.06c0,2.69,2.11,3.81,4.63,4.86,2.01.84,3.32,1.36,3.32,2.54v.03c0,1.02-.86,1.8-2.36,1.8s-3.13-.71-4.66-1.92l-1.69,2.51c1.95,1.58,4.28,2.29,6.29,2.29,3.26,0,5.78-1.76,5.78-4.98M200.86,73.27v-2.88c-.61.31-1.24.46-1.95.46-1.15,0-1.82-.53-1.82-1.8v-8.73h3.8v-3h-3.8v-4.43h-3.61v4.43h-1.85l.59,3h1.26v9.44c0,3.19,1.88,4.21,4.37,4.21,1.21,0,2.17-.28,3-.71M212.89,68.23c0,1.86-1.6,3.22-3.67,3.19-1.56-.03-2.74-.96-2.74-2.6v-.06c0-1.73,1.21-2.76,3.29-2.76,1.21,0,2.3.25,3.13.59v1.64ZM214.68,58.82c-1.09-1.08-2.78-1.67-4.98-1.67s-3.96.53-5.59,1.3l1.02,2.79c1.12-.5,2.46-.99,4.09-.99,2.3,0,3.64,1.15,3.64,3.34v.68c-1.15-.37-2.3-.65-3.89-.65-3.57,0-6,1.73-6,5.26v.15c0,3.19,2.36,5.01,5.17,5.01,2.2,0,3.7-.93,4.69-2.32v2.01h3.54v-10.18c0-2.04-.57-3.65-1.69-4.74h0ZM231.7,71.6l-1.95-2.32c-.99.96-1.98,1.67-3.45,1.67-2.46,0-4.18-2.14-4.18-5.32v-.15c0-3.1,1.72-5.29,4.09-5.29,1.53,0,2.52.74,3.42,1.64l2.01-2.57c-1.4-1.36-3-2.23-5.43-2.23-4.44,0-7.72,3.53-7.72,8.42v.31c0,4.89,3.19,8.33,7.6,8.33,2.59,0,4.28-1.02,5.62-2.48M243.6,73.74h4.18l-5.05-8.52-2.53,2.64,3.4,5.88Z"/>
  <path class="cls-2" d="M237.57,51.39h-3.61v22.35h3.61v-4.74l10.05-11.67h-4.28l-5.78,7.21v-13.16Z"/>
  <path class="cls-3" d="M193.82,11.6h-28.79c-1.81,0-3.29,1.43-3.29,3.19v7.51h7.99v-1.23c0-.95.8-1.72,1.78-1.72h15.83c.98,0,1.78.77,1.78,1.72h0v1.23h7.99v-7.51c0-1.75-1.48-3.19-3.29-3.19h0ZM189.12,35.69c0,.95-.8,1.72-1.78,1.72h-15.83c-.98,0-1.78-.77-1.78-1.72v-1.23h-7.99v7.51c0,1.75,1.48,3.19,3.29,3.19h28.79c1.81,0,3.29-1.43,3.29-3.19v-7.51h-7.99v1.23Z"/>
  <path class="cls-1" d="M253.17,11.6H110.41v66.81h142.76V11.6Z"/>
  <path class="cls-3" d="M169.73,24.51h-7.99v7.74h7.99v-7.74ZM197.1,24.51h-7.99v7.74h7.99v-7.74Z"/>
</svg>