<?xml version="1.0" encoding="UTF-8" standalone="no"?>
<!-- Generator: Adobe Illustrator 26.3.1, SVG Export Plug-In . SVG Version: 6.00 Build 0)  -->

<svg
   version="1.1"
   x="0px"
   y="0px"
   viewBox="0 0 65.875093 30.910001"
   xml:space="preserve"
   id="svg15"
   sodipodi:docname="rancher-suse-logo-horizontal-color.svg"
   width="65.875092"
   height="30.91"
   inkscape:version="1.4 (e7c3feb1, 2024-10-09)"
   xmlns:inkscape="http://www.inkscape.org/namespaces/inkscape"
   xmlns:sodipodi="http://sodipodi.sourceforge.net/DTD/sodipodi-0.dtd"
   xmlns="http://www.w3.org/2000/svg"
   xmlns:svg="http://www.w3.org/2000/svg"><defs
   id="defs15">
	
	
	
	
	
	
	
	
	
	
</defs><sodipodi:namedview
   id="namedview15"
   pagecolor="#ffffff"
   bordercolor="#000000"
   borderopacity="0.25"
   inkscape:showpageshadow="2"
   inkscape:pageopacity="0.0"
   inkscape:pagecheckerboard="0"
   inkscape:deskcolor="#d1d1d1"
   inkscape:zoom="3.5413752"
   inkscape:cx="39.109101"
   inkscape:cy="19.625145"
   inkscape:window-width="1224"
   inkscape:window-height="752"
   inkscape:window-x="37"
   inkscape:window-y="38"
   inkscape:window-maximized="0"
   inkscape:current-layer="svg15" />
<style
   type="text/css"
   id="style1">
	.st0{display:none;}
	.st1{display:inline;}
	.st2{fill:#2453FF;}
</style>
<g
   id="padding"
   class="st0"
   transform="translate(-22.93925,-22.8)">
	<path
   class="st1"
   d="m 118.37,-0.13 h 9.41 c 4.47,0 7.48,2.17 7.48,6.36 0,3.42 -2.33,5.48 -4.6,6.19 0.68,0.58 1.18,1.35 1.59,2.17 0.95,1.93 1.59,4.06 3.59,4.06 0.51,0 0.91,-0.17 0.91,-0.17 l -0.44,4.03 c 0,0 -1.22,0.3 -2.27,0.3 -2.71,0 -4.26,-1.05 -5.85,-4.67 -0.68,-1.62 -1.62,-4.47 -2.88,-4.47 h -1.29 v 9.03 h -5.65 V -0.13 m 5.65,4.09 v 5.62 h 2.03 c 1.62,0 3.52,-0.51 3.52,-2.94 0,-2 -1.29,-2.67 -2.84,-2.67 h -2.71 z"
   id="path1" />
	<g
   class="st1"
   id="g3">
		<path
   d="m 0,54.39 v -9.41 c 0,-4.47 2.17,-7.48 6.36,-7.48 3.42,0 5.48,2.33 6.19,4.6 0.58,-0.68 1.35,-1.18 2.17,-1.59 1.93,-0.95 4.06,-1.59 4.06,-3.59 0,-0.51 -0.17,-0.91 -0.17,-0.91 l 4.03,0.44 c 0,0 0.3,1.22 0.3,2.27 0,2.71 -1.05,4.26 -4.67,5.85 -1.62,0.68 -4.47,1.62 -4.47,2.88 v 1.29 h 9.03 v 5.65 H 0 m 4.09,-5.65 h 5.62 v -2.03 c 0,-1.62 -0.51,-3.52 -2.94,-3.52 -2,0 -2.67,1.29 -2.67,2.84 v 2.71 z"
   id="path2" />
		<path
   d="m 232.18,54.39 v -9.41 c 0,-4.47 2.17,-7.48 6.36,-7.48 3.42,0 5.48,2.33 6.19,4.6 0.58,-0.68 1.35,-1.18 2.17,-1.59 1.93,-0.95 4.06,-1.59 4.06,-3.59 0,-0.51 -0.17,-0.91 -0.17,-0.91 l 4.03,0.44 c 0,0 0.3,1.22 0.3,2.27 0,2.71 -1.05,4.26 -4.67,5.85 -1.62,0.68 -4.47,1.62 -4.47,2.88 v 1.29 h 9.03 v 5.65 h -22.83 m 4.09,-5.65 h 5.62 v -2.03 c 0,-1.62 -0.51,-3.52 -2.94,-3.52 -2,0 -2.67,1.29 -2.67,2.84 v 2.71 z"
   id="path3" />
	</g>
	<path
   class="st1"
   d="m 118.37,67.7 h 9.41 c 4.47,0 7.48,2.17 7.48,6.36 0,3.42 -2.33,5.48 -4.6,6.19 0.68,0.58 1.18,1.35 1.59,2.17 0.95,1.93 1.59,4.06 3.59,4.06 0.51,0 0.91,-0.17 0.91,-0.17 l -0.44,4.03 c 0,0 -1.22,0.3 -2.27,0.3 -2.71,0 -4.26,-1.05 -5.85,-4.67 -0.68,-1.62 -1.62,-4.47 -2.88,-4.47 h -1.29 v 9.03 h -5.65 V 67.7 m 5.65,4.09 v 5.62 h 2.03 c 1.62,0 3.52,-0.51 3.52,-2.94 0,-2 -1.29,-2.67 -2.84,-2.67 h -2.71 z"
   id="path4" />
</g>
<g
   id="g6"
   transform="translate(-22.93925,-22.8)">
		<path
   class="st2"
   d="M 88.78,29.59 88.07,25.3 c -0.23,-1.38 -0.77,-2.5 -1.19,-2.5 -0.43,0 -0.77,1.14 -0.77,2.54 v 1.12 c 0,1.39 -1.14,2.54 -2.54,2.54 h -1.12 c -0.08,0 -0.16,0 -0.24,0.01 v 3.08 c 0.08,0 0.16,0.01 0.24,0.01 h 4.22 c 1.39,-0.01 2.34,-1.13 2.11,-2.51"
   id="path5" />
		<path
   class="st2"
   d="m 78.67,25.96 h -6.84 c -0.06,0 -0.11,0 -0.17,0.01 h -7.02 c -0.08,0 -0.16,0.01 -0.24,0.02 v -0.65 c 0,-1.39 -0.35,-2.54 -0.77,-2.54 -0.43,0 -0.96,1.13 -1.19,2.5 l -0.71,4.29 c -0.23,1.38 0.72,2.5 2.12,2.5 h 4.22 c 0.43,0 0.84,-0.07 1.2,-0.19 -0.13,0.72 -0.76,1.26 -1.52,1.26 h -5.91 c -0.96,0 -1.68,-0.86 -1.53,-1.8 l 0.6,-3.59 c 0.16,-0.94 -0.57,-1.8 -1.53,-1.8 H 29.95 c -0.63,0 -1.17,0.37 -1.41,0.91 L 23,35.31 c -0.09,0.14 -0.08,0.33 0.03,0.46 l 1.08,1.27 c 0.13,0.16 0.37,0.18 0.53,0.05 l 3.77,-2.97 v 18.04 c 0,0.86 0.69,1.55 1.55,1.55 h 8.35 c 0.86,0 1.55,-0.69 1.55,-1.55 v -6.27 c 0,-0.85 0.69,-1.55 1.55,-1.55 h 20.85 c 0.86,0 1.55,0.69 1.55,1.55 v 6.27 c 0,0.86 0.69,1.55 1.55,1.55 h 8.35 c 0.85,0 1.55,-0.69 1.55,-1.55 v -6.75 h -4.44 c -1.39,0 -2.54,-1.14 -2.54,-2.54 v -4.34 c 0,-0.83 0.4,-1.56 1.02,-2.02 v 5.18 c 0,1.39 1.14,2.54 2.54,2.54 h 6.84 c 1.39,0 2.54,-1.14 2.54,-2.54 V 28.5 c -0.01,-1.39 -1.15,-2.54 -2.55,-2.54"
   id="path6" />
	</g>
</svg>
