<?xml version="1.0" encoding="UTF-8"?><svg id="Vrstva_1" xmlns="http://www.w3.org/2000/svg" viewBox="0 0 401.439 45.41"><defs><style>.cls-1{isolation:isolate;}.cls-2{fill:#1d1d1b;}.cls-3{fill:#3c3c3b;}</style></defs><g class="cls-1"><path d="M28.87,10.497h1.503v9.656h-1.503v-9.656ZM30.429,10.497h.51l.938,9.656h-.51l-.938-9.656ZM32.87,10.497h.51l-.938,9.656h-.51l.938-9.656ZM33.435,10.497h1.518v9.656h-1.518v-9.656Z"/><path d="M40.653,10.497v7.38c0,.524.469.897.911.897s.91-.373.91-.897v-7.38h1.518v7.436c0,1.297-1.173,2.304-2.428,2.304s-2.428-1.007-2.428-2.304v-7.436h1.517Z"/><path d="M50.188,10.497v9.656h-1.518v-9.656h1.518ZM50.767,10.497l1.435,9.656h-.524l-1.435-9.656h.524ZM53.774,10.497v9.656h-1.518v-9.656h1.518Z"/><path d="M60.108,19.615v-8.58h-1.296v-.538h4.125v.538h-1.311v8.58h1.311v.538h-4.125v-.538h1.296Z"/></g><g class="cls-1"><path d="M29.615,31.731v-5.214c0-1.324,1.076-2.304,2.386-2.304,1.324,0,2.387.979,2.387,2.304v.358h-.745v-.345c0-.896-.786-1.601-1.642-1.601-.883,0-1.642.704-1.642,1.601v5.187c0,.896.759,1.6,1.642,1.6.855,0,1.642-.703,1.642-1.6v-.317h.745v.331c0,1.365-1.062,2.304-2.387,2.304-1.311,0-2.386-.938-2.386-2.304Z"/><path d="M39.453,24.296h4.607v.69h-3.862v3.559h3.697v.689h-3.697v4.028h3.862v.689h-4.607v-9.656Z"/><path d="M51.567,24.296c1.255,0,2.304,1.049,2.304,2.304v.966c0,1.173-.897,2.124-2.028,2.221l2.359,4.166h-.855l-2.29-4.083h-1.255v4.083h-.745v-9.656h2.511ZM53.14,27.482v-.868c0-.911-.759-1.628-1.642-1.628h-1.696v4.18h1.696c.924,0,1.642-.69,1.642-1.684Z"/><path d="M60.509,33.47v-8.69h-1.683v-.483h4.111v.483h-1.683v8.69h1.683v.482h-4.111v-.482h1.683Z"/><path d="M67.588,24.986v-.69h5.904v.69h-2.58v8.966h-.745v-8.966h-2.58Z"/><path d="M82.254,28.545v.689h-4.111v-.689h4.111Z"/><path d="M87.471,31.731v-.331h.745v.317c0,.896.786,1.6,1.655,1.6.855,0,1.627-.703,1.627-1.6v-.565c0-1.146-.938-1.463-1.821-1.655-.841-.193-2.207-.704-2.207-2.317v-.662c0-1.324,1.062-2.304,2.386-2.304s2.387.979,2.387,2.304v.358h-.745v-.345c0-.896-.786-1.601-1.642-1.601-.869,0-1.641.704-1.641,1.601v.648c0,1.131.952,1.448,1.793,1.642.911.206,2.235.744,2.235,2.316v.594c0,1.365-1.062,2.304-2.387,2.304s-2.386-.938-2.386-2.304Z"/><path d="M97.226,31.731v-5.214c0-1.324,1.076-2.304,2.386-2.304,1.324,0,2.386.979,2.386,2.304v.358h-.745v-.345c0-.896-.786-1.601-1.642-1.601-.883,0-1.641.704-1.641,1.601v5.187c0,.896.758,1.6,1.641,1.6.855,0,1.642-.703,1.642-1.6v-.317h.745v.331c0,1.365-1.062,2.304-2.386,2.304-1.31,0-2.386-.938-2.386-2.304Z"/></g><path class="cls-3" d="M315.466,14.427v.52h-2.564v-.52h.988v-2.871h-.97v-.526h2.528v.526h-.97v2.871h.987Z"/><path class="cls-3" d="M317.836,11.556v3.391h-.595v-3.391h-1.16v-.526h2.915v.526h-1.16Z"/><path class="cls-3" d="M321.334,14.131v.816h-.559v-.816h-1.773l-.06-.387c.21-.439.473-.904.788-1.393.315-.49.634-.93.955-1.321h.648v2.599h.571v.502h-.571ZM319.55,13.629h1.225v-1.995c-.234.31-.456.637-.666.979-.21.343-.397.681-.559,1.016Z"/><path class="cls-3" d="M324.975,14.427v.52h-2.564v-.52h.988v-2.871h-.97v-.526h2.528v.526h-.97v2.871h.987Z"/><path class="cls-3" d="M328.228,14.947h-.732l-1.267-3.125v3.125h-.529v-3.917h.726l1.273,3.131v-3.131h.529v3.917Z"/><path class="cls-3" d="M331.62,14.947h-.732l-1.267-3.125v3.125h-.529v-3.917h.726l1.273,3.131v-3.131h.529v3.917Z"/><path class="cls-3" d="M335.212,13.006c0,.649-.124,1.145-.372,1.487-.248.343-.606.514-1.074.514-.48,0-.84-.169-1.08-.508s-.36-.848-.36-1.529c0-.645.125-1.139.375-1.484.25-.345.605-.517,1.065-.517.484,0,.846.169,1.086.508.24.338.36.848.36,1.529ZM332.946,12.97c0,.516.066.895.199,1.136.133.242.34.363.622.363.286,0,.495-.119.628-.357.133-.238.199-.607.199-1.106,0-.508-.066-.883-.199-1.127-.133-.244-.342-.366-.628-.366s-.494.117-.625.351c-.131.234-.196.603-.196,1.106Z"/><path class="cls-3" d="M338.566,11.03l-1.077,3.917h-.851l-1.077-3.917h.625l.886,3.439.886-3.439h.607Z"/><path class="cls-3" d="M341.743,14.947h-.613l-.286-1.04h-1.327l-.286,1.04h-.589l1.124-3.917h.851l1.124,3.917ZM340.185,11.465l-.529,1.928h1.053l-.524-1.928Z"/><path class="cls-3" d="M343.511,11.556v3.391h-.595v-3.391h-1.16v-.526h2.915v.526h-1.16Z"/><path class="cls-3" d="M347.854,14.427v.52h-2.564v-.52h.988v-2.871h-.97v-.526h2.528v.526h-.97v2.871h.987Z"/><path class="cls-3" d="M351.244,13.006c0,.649-.124,1.145-.372,1.487-.248.343-.606.514-1.074.514-.48,0-.84-.169-1.08-.508s-.36-.848-.36-1.529c0-.645.125-1.139.375-1.484.25-.345.605-.517,1.065-.517.484,0,.846.169,1.086.508.24.338.36.848.36,1.529ZM348.977,12.97c0,.516.066.895.199,1.136.133.242.34.363.622.363.286,0,.495-.119.628-.357.133-.238.199-.607.199-1.106,0-.508-.066-.883-.199-1.127-.133-.244-.342-.366-.628-.366s-.494.117-.625.351c-.131.234-.196.603-.196,1.106Z"/><path class="cls-3" d="M354.482,14.947h-.732l-1.267-3.125v3.125h-.529v-3.917h.726l1.273,3.131v-3.131h.529v3.917Z"/><path class="cls-3" d="M357.787,13.901c0,.335-.117.602-.351.804s-.549.302-.946.302c-.222,0-.45-.032-.684-.097-.234-.065-.444-.155-.631-.272l.256-.478c.19.113.373.196.547.248.174.053.349.079.524.079.214,0,.381-.047.5-.142s.179-.231.179-.408c0-.129-.048-.244-.143-.345-.095-.101-.305-.221-.631-.363-.218-.097-.379-.175-.482-.236-.103-.06-.19-.123-.262-.187-.115-.105-.2-.221-.256-.347-.055-.127-.083-.269-.083-.426,0-.314.111-.57.333-.768.222-.197.513-.296.874-.296.21,0,.416.028.619.085.202.057.399.139.589.248l-.238.477c-.174-.097-.341-.168-.5-.214s-.313-.07-.464-.07c-.191,0-.34.046-.449.139-.109.093-.164.216-.164.369,0,.129.049.243.146.341.097.099.308.221.634.366.214.101.373.18.476.239.103.058.19.12.262.184.119.105.206.221.262.347.056.127.083.267.083.42Z"/><path class="cls-3" d="M315.448,22.2h-.732l-1.267-3.125v3.125h-.529v-3.917h.726l1.273,3.131v-3.131h.529v3.917Z"/><path class="cls-3" d="M319.137,22.2h-.613l-.286-1.04h-1.327l-.286,1.04h-.589l1.124-3.917h.851l1.124,3.917ZM317.578,18.719l-.529,1.928h1.053l-.524-1.928Z"/><path class="cls-3" d="M320.905,18.809v3.391h-.595v-3.391h-1.16v-.526h2.915v.526h-1.16Z"/><path class="cls-3" d="M325.247,21.681v.52h-2.564v-.52h.988v-2.871h-.97v-.526h2.528v.526h-.97v2.871h.987Z"/><path class="cls-3" d="M328.637,20.26c0,.649-.124,1.145-.372,1.487-.248.343-.606.514-1.074.514-.48,0-.84-.169-1.08-.508s-.36-.848-.36-1.529c0-.645.125-1.139.375-1.484.25-.345.605-.517,1.065-.517.484,0,.846.169,1.086.508.24.338.36.848.36,1.529ZM326.371,20.224c0,.516.066.895.199,1.136.133.242.34.363.622.363.286,0,.495-.119.628-.357.133-.238.199-.607.199-1.106,0-.508-.066-.883-.199-1.127-.133-.244-.342-.366-.628-.366s-.494.117-.625.351c-.131.234-.196.603-.196,1.106Z"/><path class="cls-3" d="M331.875,22.2h-.732l-1.267-3.125v3.125h-.529v-3.917h.726l1.273,3.131v-3.131h.529v3.917Z"/><path class="cls-3" d="M335.564,22.2h-.613l-.286-1.04h-1.327l-.286,1.04h-.589l1.124-3.917h.851l1.124,3.917ZM334.006,18.719l-.529,1.928h1.053l-.524-1.928Z"/><path class="cls-3" d="M336.837,21.681h1.808v.52h-2.409v-3.917h.601v3.397Z"/><path class="cls-3" d="M343.779,21.155c0,.335-.117.602-.351.804s-.549.302-.946.302c-.222,0-.45-.032-.684-.097-.234-.065-.444-.155-.631-.272l.256-.478c.19.113.373.196.547.248.174.053.349.079.524.079.214,0,.381-.047.5-.142s.179-.231.179-.408c0-.129-.048-.244-.143-.345-.095-.101-.305-.221-.631-.363-.218-.097-.379-.175-.482-.236-.103-.06-.19-.123-.262-.187-.115-.105-.2-.221-.256-.347-.055-.127-.083-.269-.083-.426,0-.314.111-.57.333-.768.222-.197.513-.296.874-.296.21,0,.416.028.619.085.202.057.399.139.589.248l-.238.477c-.174-.097-.341-.168-.5-.214s-.313-.07-.464-.07c-.191,0-.34.046-.449.139-.109.093-.164.216-.164.369,0,.129.049.243.146.341.097.099.308.221.634.366.214.101.373.18.476.239.103.058.19.12.262.184.119.105.206.221.262.347.056.127.083.267.083.42Z"/><path class="cls-3" d="M345.799,21.723c.226,0,.4-.065.524-.193.123-.129.184-.312.184-.55v-2.696h.583v2.696c0,.387-.118.697-.354.931-.236.234-.548.351-.937.351-.393,0-.709-.117-.949-.351-.24-.234-.36-.544-.36-.931v-2.696h.601v2.696c0,.238.061.421.184.55.123.129.298.193.524.193Z"/><path class="cls-3" d="M348.566,20.707v1.493h-.601v-3.917h1.303c.401,0,.72.106.958.317s.357.503.357.873c0,.391-.118.694-.354.91s-.556.323-.961.323h-.702ZM349.976,19.486c0-.214-.065-.38-.193-.499-.129-.119-.306-.178-.532-.178h-.684v1.378h.684c.234,0,.414-.061.538-.181.125-.121.188-.294.188-.52Z"/><path class="cls-3" d="M351.918,21.681h1.743v.52h-2.344v-3.917h2.344v.526h-1.743v1.142h1.481v.526h-1.481v1.203Z"/><path class="cls-3" d="M355.019,20.599v1.602h-.601v-3.917h1.315c.393,0,.705.101.937.302.232.202.348.48.348.834,0,.278-.066.511-.199.698-.133.187-.324.319-.574.396l.916,1.686h-.678l-.839-1.602h-.625ZM356.411,19.432c0-.197-.061-.351-.181-.459-.121-.109-.289-.163-.503-.163h-.708v1.263h.708c.218,0,.387-.055.506-.166s.178-.269.178-.475Z"/><path class="cls-3" d="M359.261,22.261c-.52,0-.915-.173-1.187-.52-.272-.347-.408-.852-.408-1.517,0-.625.142-1.114.425-1.469.284-.355.675-.532,1.175-.532.202,0,.391.025.565.076.174.05.347.13.517.239l-.273.477c-.135-.085-.269-.147-.402-.188-.133-.04-.265-.06-.396-.06-.329,0-.577.122-.744.366s-.25.607-.25,1.091c0,.504.081.879.244,1.127s.412.372.749.372c.155,0,.295-.02.422-.061.127-.04.273-.113.44-.217l.256.447c-.167.121-.347.213-.541.275-.194.062-.393.094-.595.094Z"/><path class="cls-3" d="M363.662,20.26c0,.649-.124,1.145-.372,1.487-.248.343-.606.514-1.074.514-.48,0-.84-.169-1.08-.508-.24-.339-.36-.848-.36-1.529,0-.645.125-1.139.375-1.484.25-.345.605-.517,1.065-.517.484,0,.846.169,1.086.508.24.338.36.848.36,1.529ZM361.396,20.224c0,.516.066.895.199,1.136s.34.363.622.363c.286,0,.495-.119.628-.357.133-.238.199-.607.199-1.106,0-.508-.066-.883-.199-1.127-.133-.244-.342-.366-.628-.366s-.493.117-.625.351c-.131.234-.196.603-.196,1.106Z"/><path class="cls-3" d="M364.816,19.106v3.095h-.529v-3.917h.696l.75,1.971.737-1.971h.69v3.917h-.53v-3.095l-.69,1.795h-.434l-.69-1.795Z"/><path class="cls-3" d="M368.573,20.707v1.493h-.601v-3.917h1.303c.401,0,.72.106.958.317s.357.503.357.873c0,.391-.118.694-.354.91-.236.216-.556.323-.961.323h-.702ZM369.983,19.486c0-.214-.065-.38-.193-.499-.129-.119-.306-.178-.532-.178h-.684v1.378h.684c.234,0,.414-.061.538-.181s.188-.294.188-.52Z"/><path class="cls-3" d="M372.535,21.723c.226,0,.4-.065.524-.193.123-.129.184-.312.184-.55v-2.696h.583v2.696c0,.387-.118.697-.354.931-.236.234-.548.351-.937.351-.393,0-.709-.117-.949-.351-.24-.234-.36-.544-.36-.931v-2.696h.601v2.696c0,.238.062.421.185.55.123.129.297.193.523.193Z"/><path class="cls-3" d="M376.197,18.809v3.391h-.595v-3.391h-1.16v-.526h2.915v.526h-1.16Z"/><path class="cls-3" d="M380.54,21.681v.52h-2.564v-.52h.988v-2.871h-.97v-.526h2.528v.526h-.969v2.871h.987Z"/><path class="cls-3" d="M383.793,22.2h-.731l-1.267-3.125v3.125h-.53v-3.917h.726l1.273,3.131v-3.131h.529v3.917Z"/><path class="cls-3" d="M386.135,22.261c-.527,0-.929-.172-1.204-.517-.276-.344-.414-.851-.414-1.52,0-.633.141-1.124.422-1.475.281-.351.676-.526,1.183-.526.199,0,.382.022.554.067.17.044.337.115.5.211l-.262.49c-.123-.072-.251-.128-.383-.166-.133-.038-.265-.057-.396-.057-.337,0-.588.12-.752.36-.165.24-.247.606-.247,1.097,0,.504.083.879.25,1.127s.42.372.761.372c.103,0,.197-.008.282-.024.085-.016.172-.042.259-.079v-1.324h.571v1.614c-.155.109-.331.195-.53.257-.198.062-.397.094-.595.094Z"/><path class="cls-3" d="M314.479,29.515c-.52,0-.915-.173-1.187-.52-.272-.347-.408-.852-.408-1.517,0-.625.142-1.114.425-1.469.284-.355.675-.532,1.175-.532.202,0,.391.025.565.076.175.05.347.13.518.239l-.274.477c-.135-.085-.269-.147-.402-.188-.133-.04-.265-.06-.396-.06-.329,0-.577.122-.744.366s-.25.607-.25,1.091c0,.504.081.879.244,1.127s.412.372.749.372c.155,0,.295-.02.422-.061.127-.04.274-.113.44-.217l.256.447c-.167.121-.347.213-.541.275-.194.062-.393.094-.595.094Z"/><path class="cls-3" d="M316.944,28.934h1.743v.52h-2.344v-3.917h2.344v.526h-1.743v1.142h1.481v.526h-1.481v1.203Z"/><path class="cls-3" d="M321.96,29.454h-.732l-1.267-3.125v3.125h-.529v-3.917h.726l1.273,3.131v-3.131h.529v3.917Z"/><path class="cls-3" d="M324.349,26.063v3.391h-.595v-3.391h-1.16v-.526h2.915v.526h-1.16Z"/><path class="cls-3" d="M326.826,28.934h1.743v.52h-2.344v-3.917h2.344v.526h-1.743v1.142h1.481v.526h-1.481v1.203Z"/><path class="cls-3" d="M329.928,27.852v1.602h-.601v-3.917h1.315c.393,0,.705.101.937.302.232.202.348.48.348.834,0,.278-.066.511-.199.698-.133.187-.324.319-.574.396l.916,1.686h-.678l-.839-1.602h-.625ZM331.32,26.685c0-.197-.061-.351-.181-.459-.121-.109-.289-.163-.503-.163h-.708v1.263h.708c.218,0,.387-.055.506-.166s.178-.269.178-.475Z"/><rect class="cls-3" x="308.237" y="11.032" width=".612" height="18.462"/><rect class="cls-3" x="254.668" y="18.216" width=".612" height="7.26"/><rect class="cls-3" x="261.721" y="20.206" width=".612" height="7.264"/><rect class="cls-3" x="264.072" y="18.216" width=".612" height="7.26"/><rect class="cls-3" x="259.37" y="22.202" width=".612" height="7.261"/><rect class="cls-3" x="257.019" y="20.206" width=".612" height="7.261"/><path class="cls-3" d="M257.61,11.03l-1.035,3.917h-1.017l-1.035-3.917h.744l.815,3.331.809-3.331h.72Z"/><path class="cls-3" d="M261.066,13.871c0,.347-.119.622-.357.828s-.561.308-.97.308c-.226,0-.46-.032-.702-.097-.242-.065-.46-.155-.654-.272l.286-.593c.194.113.38.196.556.251.176.054.352.082.526.082.186,0,.331-.039.434-.118s.155-.192.155-.342c0-.113-.044-.212-.131-.299-.087-.087-.282-.194-.583-.323-.226-.097-.392-.176-.497-.239-.105-.062-.195-.128-.271-.196-.115-.105-.2-.223-.256-.354-.055-.131-.083-.277-.083-.438,0-.326.115-.591.345-.795.23-.203.533-.305.91-.305.218,0,.432.029.642.088.21.058.41.142.601.251l-.262.586c-.182-.097-.354-.169-.515-.217s-.316-.072-.467-.072c-.163,0-.291.038-.384.115s-.14.177-.14.302c0,.113.045.214.134.302.089.089.286.202.592.339.218.101.379.181.482.242.103.06.19.125.262.193.119.101.206.216.262.344.055.129.083.272.083.429Z"/><path class="cls-3" d="M262.172,11.03h1.267c.397,0,.708.085.934.254.226.169.339.407.339.713,0,.206-.05.385-.152.538-.101.153-.245.27-.431.351.242.072.425.186.55.342.125.155.187.347.187.577,0,.355-.12.634-.36.837s-.562.305-.967.305h-1.368v-3.917ZM263.969,12.112c0-.161-.051-.28-.152-.357-.101-.076-.257-.115-.467-.115h-.458v.997h.458c.206,0,.361-.044.464-.133.103-.088.155-.22.155-.393ZM264.123,13.768c0-.189-.058-.327-.175-.414-.117-.087-.303-.13-.556-.13h-.5v1.118h.535c.234,0,.408-.047.523-.142.115-.095.173-.239.173-.432Z"/><path class="cls-3" d="M270.822,11.544v3.391h-.595v-3.391h-1.16v-.526h2.915v.526h-1.16Z"/><path class="cls-3" d="M273.597,14.415h1.743v.52h-2.344v-3.917h2.344v.526h-1.743v1.142h1.481v.526h-1.481v1.203Z"/><path class="cls-3" d="M277.887,14.995c-.52,0-.915-.173-1.187-.52-.272-.347-.408-.852-.408-1.517,0-.625.142-1.114.425-1.469.284-.355.675-.532,1.175-.532.202,0,.39.025.565.076.175.05.347.13.518.239l-.274.477c-.135-.085-.269-.147-.402-.188-.133-.04-.264-.06-.396-.06-.329,0-.577.122-.743.366s-.25.607-.25,1.091c0,.504.081.879.244,1.127.162.248.412.372.749.372.155,0,.295-.02.422-.061.127-.04.274-.113.44-.217l.255.447c-.167.121-.347.213-.541.275s-.393.094-.595.094Z"/><path class="cls-3" d="M280.668,13.157v1.777h-.601v-3.917h.601v1.614h1.41v-1.614h.601v3.917h-.601v-1.777h-1.41Z"/><path class="cls-3" d="M286.469,14.935h-.732l-1.267-3.125v3.125h-.529v-3.917h.726l1.273,3.131v-3.131h.529v3.917Z"/><path class="cls-3" d="M290.112,14.415v.52h-2.564v-.52h.988v-2.871h-.97v-.526h2.528v.526h-.969v2.871h.987Z"/><path class="cls-3" d="M292.559,14.995c-.52,0-.915-.173-1.187-.52-.272-.347-.408-.852-.408-1.517,0-.625.142-1.114.425-1.469.284-.355.675-.532,1.175-.532.202,0,.391.025.565.076.174.05.347.13.517.239l-.273.477c-.135-.085-.269-.147-.402-.188-.133-.04-.265-.06-.396-.06-.329,0-.577.122-.744.366s-.25.607-.25,1.091c0,.504.081.879.244,1.127.163.248.412.372.75.372.155,0,.295-.02.422-.061.127-.04.273-.113.44-.217l.256.447c-.167.121-.347.213-.541.275-.195.062-.393.094-.595.094Z"/><path class="cls-3" d="M297.512,14.935h-.613l-.286-1.04h-1.326l-.286,1.04h-.589l1.124-3.917h.851l1.124,3.917ZM295.953,11.453l-.529,1.928h1.053l-.524-1.928Z"/><path class="cls-3" d="M299.142,14.415h1.808v.52h-2.409v-3.917h.601v3.397Z"/><path class="cls-3" d="M270.536,21.711c.226,0,.4-.065.523-.193.123-.129.185-.312.185-.55v-2.696h.583v2.696c0,.387-.118.697-.354.931-.236.234-.548.351-.937.351-.393,0-.709-.117-.949-.351-.24-.234-.36-.544-.36-.931v-2.696h.601v2.696c0,.238.061.421.184.55.123.129.298.193.524.193Z"/><path class="cls-3" d="M275.613,22.188h-.732l-1.267-3.125v3.125h-.529v-3.917h.726l1.273,3.131v-3.131h.529v3.917Z"/><path class="cls-3" d="M279.256,21.668v.52h-2.564v-.52h.988v-2.871h-.97v-.526h2.528v.526h-.97v2.871h.988Z"/><path class="cls-3" d="M282.914,18.271l-1.077,3.917h-.851l-1.077-3.917h.625l.886,3.439.886-3.439h.607Z"/><path class="cls-3" d="M284.509,21.668h1.743v.52h-2.344v-3.917h2.344v.526h-1.743v1.142h1.481v.526h-1.481v1.203Z"/><path class="cls-3" d="M288.027,20.587v1.602h-.601v-3.917h1.315c.393,0,.705.101.937.302.232.202.348.48.348.834,0,.278-.066.511-.199.698-.133.187-.324.319-.574.396l.916,1.686h-.678l-.839-1.602h-.625ZM289.418,19.42c0-.197-.061-.351-.181-.459-.121-.109-.289-.163-.503-.163h-.708v1.263h.708c.218,0,.387-.055.506-.166.119-.111.178-.269.178-.475Z"/><path class="cls-3" d="M293.6,21.143c0,.335-.117.602-.351.804-.234.202-.549.302-.946.302-.222,0-.45-.032-.684-.097-.234-.065-.444-.155-.631-.272l.256-.478c.19.113.372.196.547.248.174.053.349.079.523.079.214,0,.381-.047.5-.142.119-.095.179-.231.179-.408,0-.129-.048-.244-.143-.345-.095-.101-.305-.221-.631-.363-.218-.097-.379-.175-.482-.236-.103-.06-.19-.123-.261-.187-.115-.105-.201-.221-.256-.347-.056-.127-.083-.269-.083-.426,0-.314.111-.57.333-.768.222-.197.513-.296.874-.296.21,0,.416.028.619.085.202.057.399.139.589.248l-.238.477c-.174-.097-.341-.168-.499-.214-.159-.046-.313-.07-.464-.07-.191,0-.34.046-.449.139-.109.093-.164.216-.164.369,0,.129.049.243.146.341.097.099.309.221.634.366.214.101.372.18.476.239.103.058.19.12.261.184.119.105.206.221.262.347s.083.267.083.42Z"/><path class="cls-3" d="M297.088,21.668v.52h-2.564v-.52h.988v-2.871h-.97v-.526h2.528v.526h-.969v2.871h.987Z"/><path class="cls-3" d="M299.519,18.797v3.391h-.595v-3.391h-1.16v-.526h2.915v.526h-1.16Z"/><path class="cls-3" d="M303.018,20.671v1.517h-.601v-1.517l-1.231-2.4h.642l.904,1.832.898-1.832h.607l-1.219,2.4Z"/><path class="cls-3" d="M271.97,27.501c0,.649-.124,1.145-.372,1.487-.248.343-.605.514-1.074.514-.48,0-.84-.169-1.08-.508-.24-.339-.36-.848-.36-1.529,0-.645.125-1.139.375-1.484.25-.345.605-.517,1.065-.517.484,0,.846.169,1.085.508.24.338.36.848.36,1.529ZM269.703,27.465c0,.516.066.895.199,1.136.133.242.34.363.622.363.285,0,.495-.119.628-.357s.199-.607.199-1.106c0-.508-.066-.883-.199-1.127s-.342-.366-.628-.366-.494.117-.625.351c-.131.234-.196.603-.196,1.106Z"/><path class="cls-3" d="M273.786,27.78v1.662h-.595v-3.917h2.338v.526h-1.743v1.203h1.481v.526h-1.481Z"/><path class="cls-3" d="M281.21,27.501c0,.649-.124,1.145-.372,1.487-.248.343-.606.514-1.074.514-.48,0-.84-.169-1.08-.508-.24-.339-.36-.848-.36-1.529,0-.645.125-1.139.375-1.484.25-.345.605-.517,1.065-.517.484,0,.846.169,1.086.508.24.338.36.848.36,1.529ZM278.943,27.465c0,.516.066.895.199,1.136s.34.363.622.363c.286,0,.495-.119.628-.357.133-.238.199-.607.199-1.106,0-.508-.066-.883-.199-1.127-.133-.244-.342-.366-.628-.366s-.493.117-.625.351c-.131.234-.196.603-.196,1.106Z"/><path class="cls-3" d="M284.621,28.396c0,.335-.117.602-.351.804-.234.202-.549.302-.946.302-.222,0-.45-.032-.684-.097-.234-.065-.444-.155-.631-.272l.256-.478c.19.113.372.196.547.248.174.053.349.079.523.079.214,0,.381-.047.5-.142.119-.095.179-.231.179-.408,0-.129-.048-.244-.143-.345-.095-.101-.305-.221-.631-.363-.218-.097-.379-.175-.482-.236-.103-.06-.19-.123-.261-.187-.115-.105-.201-.221-.256-.347-.056-.127-.083-.269-.083-.426,0-.314.111-.57.333-.768.222-.197.513-.296.874-.296.21,0,.416.028.619.085.202.057.399.139.589.248l-.238.477c-.174-.097-.341-.168-.499-.214-.159-.046-.313-.07-.464-.07-.191,0-.34.046-.449.139-.109.093-.164.216-.164.369,0,.129.049.243.146.341.097.099.309.221.634.366.214.101.372.18.476.239.103.058.19.12.261.184.119.105.206.221.262.347s.083.267.083.42Z"/><path class="cls-3" d="M287.042,26.051v3.391h-.595v-3.391h-1.16v-.526h2.915v.526h-1.16Z"/><path class="cls-3" d="M289.808,27.84v1.602h-.601v-3.917h1.314c.393,0,.705.101.937.302.232.202.348.48.348.834,0,.278-.066.511-.199.698-.133.187-.324.319-.574.396l.916,1.686h-.678l-.839-1.602h-.625ZM291.2,26.673c0-.197-.061-.351-.182-.459s-.288-.163-.502-.163h-.708v1.263h.708c.218,0,.387-.055.505-.166.119-.111.179-.269.179-.475Z"/><path class="cls-3" d="M295.82,29.442h-.613l-.286-1.04h-1.326l-.286,1.04h-.589l1.124-3.917h.851l1.124,3.917ZM294.262,25.96l-.529,1.928h1.053l-.524-1.928Z"/><path class="cls-3" d="M299.137,25.525l-1.077,3.917h-.851l-1.077-3.917h.625l.886,3.439.886-3.439h.607Z"/><path class="cls-3" d="M302.552,29.442h-.613l-.285-1.04h-1.327l-.285,1.04h-.589l1.124-3.917h.851l1.124,3.917ZM300.994,25.96l-.529,1.928h1.053l-.523-1.928Z"/><path class="cls-2" d="M212.726,15.02v-2.391h-2.858v-2.954h-2.914l.002,2.954h-2v2.391h2v5.278c0,.558.052,1.086.156,1.57.104.49.3.929.58,1.306.281.378.669.68,1.152.898.481.216,1.113.326,1.878.326.317,0,.656-.028,1.008-.084.351-.056.658-.133.915-.228l.036-.014-.1-2.355-.072.032c-.171.078-.366.137-.582.175-.217.039-.422.059-.609.059-.611,0-1.008-.158-1.179-.472-.177-.323-.267-.739-.267-1.236v-5.254h2.856Z"/><path class="cls-2" d="M159.305,17.198c.073-.765.397-1.402.964-1.894.582-.505,1.304-.76,2.142-.76.45,0,.848.074,1.18.221.332.147.61.346.826.593.215.247.376.537.477.861.096.311.146.639.151.978h-5.742ZM166.425,13.871c-.496-.52-1.091-.916-1.769-1.179-.678-.263-1.425-.397-2.221-.397-.859,0-1.67.149-2.411.444-.741.295-1.392.715-1.934,1.249-.541.534-.974,1.188-1.285,1.945-.311.757-.468,1.608-.468,2.531,0,.938.157,1.79.468,2.531.31.741.747,1.376,1.298,1.887.55.51,1.209.91,1.957,1.189.748.279,1.579.42,2.47.42,2.15,0,3.813-.776,4.945-2.306l.03-.041-1.989-1.591-.032.047c-.311.451-.714.81-1.195,1.066-.482.257-1.083.386-1.784.386-.404,0-.798-.071-1.171-.211-.374-.14-.713-.334-1.009-.574-.296-.241-.535-.532-.712-.864-.17-.317-.274-.671-.31-1.052h8.675l.006-.047c.016-.129.024-.259.024-.388v-.38c0-1.032-.141-1.947-.42-2.719-.279-.773-.671-1.428-1.165-1.947"/><path class="cls-2" d="M149.282,15.927c.256-.341.583-.621.971-.83.387-.209.843-.315,1.355-.315.449,0,.898.106,1.333.316.434.209.763.472.979.78l.034.049,1.996-1.753.039-.034-.033-.04c-.465-.56-1.1-1.005-1.89-1.324-.789-.318-1.617-.48-2.459-.48s-1.647.145-2.387.432c-.741.286-1.399.699-1.958,1.225-.559.527-1.007,1.173-1.333,1.921-.327.749-.493,1.597-.493,2.52,0,.956.166,1.819.493,2.568.326.748.778,1.395,1.345,1.922.565.526,1.236.93,1.993,1.201.756.27,1.566.407,2.41.407.859,0,1.67-.141,2.411-.42.742-.279,1.361-.68,1.841-1.191l.035-.038-1.821-1.846-.042-.042-.037.046c-.264.325-.617.576-1.05.746-.435.171-.877.258-1.313.258-.528,0-.997-.105-1.391-.315-.396-.21-.731-.489-.995-.83-.265-.343-.466-.734-.598-1.161-.133-.429-.2-.868-.2-1.305s.063-.877.188-1.306c.124-.427.318-.818.574-1.161"/><path class="cls-2" d="M189.904,13.744c-.345-.433-.792-.786-1.327-1.05-.537-.264-1.19-.398-1.939-.398-.863,0-1.623.224-2.256.664-.59.411-1.021.887-1.284,1.417v-1.748h-2.82v11.529h2.962v-6.336c0-.374.056-.75.165-1.116.108-.364.269-.691.479-.971.209-.279.48-.51.804-.687.325-.177.717-.267,1.165-.267s.809.093,1.077.276c.269.184.483.422.637.707.155.286.257.613.304.969.047.36.071.71.071,1.04v6.383h2.962v-7.193c0-.588-.081-1.17-.24-1.728-.16-.559-.415-1.062-.759-1.494"/><path class="cls-2" d="M173.002,14.824c.371-.186.788-.28,1.238-.28.512,0,.992.122,1.426.362.435.241.782.529,1.03.854l.035.045,1.937-1.713-.031-.039c-.465-.592-1.102-1.039-1.892-1.326-.788-.286-1.607-.432-2.434-.432-.573,0-1.138.073-1.679.216-.543.144-1.037.367-1.468.662-.433.296-.787.683-1.051,1.148-.265.466-.4,1.027-.4,1.668,0,.546.098,1.011.292,1.381.193.371.454.685.776.934.32.248.689.451,1.097.603.405.151.827.276,1.256.371.863.204,1.52.411,1.952.616.42.198.624.517.624.975,0,.242-.053.449-.158.614-.106.166-.248.301-.422.399-.177.1-.372.174-.58.22-.209.046-.417.07-.619.07-.608,0-1.168-.134-1.665-.398-.498-.265-.909-.604-1.22-1.009l-.036-.047-1.961,1.837.036.039c.559.607,1.27,1.079,2.114,1.405.844.326,1.723.492,2.613.492.62,0,1.228-.069,1.809-.203.583-.135,1.101-.358,1.541-.663.442-.305.799-.707,1.064-1.196.265-.49.399-1.095.399-1.798,0-.562-.115-1.047-.341-1.443-.225-.393-.522-.728-.883-.992-.36-.263-.764-.478-1.204-.637-.437-.159-.875-.288-1.303-.383-.802-.189-1.419-.375-1.835-.556-.403-.175-.599-.466-.599-.891s.177-.722.542-.904"/><path class="cls-2" d="M195.477,17.198c.073-.765.397-1.402.964-1.894.582-.505,1.304-.76,2.143-.76.45,0,.848.074,1.18.221.332.147.61.346.826.593.215.247.376.537.477.861.096.311.147.639.152.978h-5.742ZM202.597,13.871c-.496-.52-1.091-.916-1.769-1.179-.678-.263-1.425-.397-2.221-.397-.859,0-1.67.149-2.411.444-.741.295-1.391.715-1.934,1.249-.541.534-.974,1.188-1.285,1.945-.311.757-.468,1.608-.468,2.531,0,.938.157,1.79.468,2.531.31.741.747,1.376,1.298,1.887.55.51,1.209.91,1.957,1.189.748.279,1.579.42,2.47.42,2.15,0,3.813-.776,4.945-2.306l.03-.041-1.989-1.591-.032.047c-.312.451-.714.81-1.195,1.066-.482.257-1.083.386-1.784.386-.404,0-.798-.071-1.171-.211-.374-.14-.713-.334-1.008-.574-.296-.241-.535-.532-.712-.864-.17-.317-.274-.671-.311-1.052h8.676l.006-.047c.016-.129.024-.259.024-.388v-.38c0-1.032-.141-1.947-.42-2.719-.279-.773-.671-1.428-1.165-1.947"/><rect class="cls-2" x="174.933" y="28.919" width="2.963" height="2.964"/><rect class="cls-2" x="170.17" y="28.919" width="2.963" height="2.964"/><rect class="cls-2" x="165.407" y="31.883" width="2.963" height="2.964"/><rect class="cls-2" x="160.644" y="31.883" width="2.963" height="2.964"/><rect class="cls-2" x="155.88" y="31.883" width="2.963" height="2.964"/><rect class="cls-2" x="146.354" y="28.919" width="2.963" height="2.964"/><rect class="cls-2" x="151.117" y="28.919" width="2.963" height="2.964"/></svg>