<?xml version="1.0" encoding="UTF-8"?><svg id="Vrstva_1" xmlns="http://www.w3.org/2000/svg" viewBox="0 0 494.565 47.655"><defs><style>.cls-1{isolation:isolate;}.cls-2{fill:#1d1d1b;}.cls-3{fill:#3c3c3b;}</style></defs><path d="M81.621,36.434c-.191.097-.409.146-.656.146-.238,0-.453-.041-.643-.123-.191-.082-.354-.198-.491-.348-.137-.149-.242-.328-.315-.536-.074-.208-.11-.438-.11-.689,0-.238.038-.459.114-.663.076-.203.184-.381.325-.533.141-.152.309-.271.504-.357.195-.087.411-.13.65-.13.186,0,.377.038.572.114.195.076.353.196.474.361l.624-.494c-.091-.121-.202-.225-.331-.312-.13-.087-.269-.159-.416-.217-.147-.059-.301-.102-.461-.13s-.314-.042-.461-.042c-.355,0-.685.056-.988.169-.303.113-.566.273-.789.481-.223.208-.399.461-.526.757-.128.297-.192.629-.192.997,0,.36.061.688.182.985.121.297.29.552.507.767.217.215.476.381.777.5.301.119.631.179.991.179.394,0,.739-.071,1.033-.211.294-.141.543-.339.747-.594l-.656-.461c-.117.16-.271.289-.461.387Z"/><polygon points="87.938 33.338 87.938 32.597 84.5 32.597 84.5 33.312 86.963 33.312 84.461 36.457 84.461 37.197 87.976 37.197 87.976 36.47 85.423 36.47 87.938 33.338"/><rect x="42.073" y="19.901" width="2.187" height="9.001"/><polygon points="54.15 25.775 54.112 25.775 50.501 19.901 48.022 19.901 48.022 28.902 50.133 28.902 50.082 23.016 50.12 23.016 53.743 28.902 56.21 28.902 56.21 19.901 54.099 19.901 54.15 25.775"/><polygon points="59.973 28.902 62.121 28.902 62.121 25.406 65.605 25.406 65.605 23.614 62.121 23.614 62.121 21.758 65.897 21.758 65.897 19.901 59.973 19.901 59.973 28.902"/><path d="M75.584,24.16c.331-.415.496-.928.496-1.538,0-.517-.097-.949-.292-1.297-.195-.348-.456-.627-.782-.839-.326-.212-.695-.363-1.106-.451-.411-.089-.833-.134-1.265-.134h-3.433v9.001h2.123v-3.573h.741l1.954,3.573h2.543l-2.352-3.852c.585-.178,1.042-.475,1.373-.89ZM73.785,23.219c-.098.144-.224.254-.377.331-.153.076-.324.129-.511.159-.187.03-.371.044-.549.044h-1.035v-2.098h1.163c.162,0,.33.013.504.038.175.026.332.074.473.146.14.072.255.174.345.305.089.132.134.303.134.515,0,.229-.049.416-.147.56Z"/><path d="M81.458,27.135h3.483l.699,1.767h2.416l-3.738-9.001h-2.11l-3.776,9.001h2.365l.661-1.767ZM83.225,22.304l1.119,3.089h-2.263l1.144-3.089Z"/><path d="M32.453,15.827c-.394,0-.78.028-1.159.082-.94-3.512-4.149-6.106-7.953-6.106-4.539,0-8.232,3.693-8.232,8.232,0,2.965,1.576,5.568,3.934,7.018-.61,1.148-.956,2.458-.956,3.846,0,4.539,3.693,8.232,8.232,8.232,3.378,0,6.286-2.045,7.554-4.962,3.865-.676,6.811-4.054,6.811-8.109,0-4.539-3.693-8.232-8.232-8.232ZM27.025,25.812c.118.194.273.36.46.502.187.142.397.252.63.332.232.079.474.118.723.118.443,0,.816-.082,1.124-.246.306-.164.556-.377.749-.638l1.94,1.226c-.398.578-.923,1.023-1.576,1.336-.651.311-1.409.468-2.271.468-.636,0-1.238-.099-1.805-.299-.568-.198-1.063-.487-1.489-.867-.426-.38-.76-.848-1.004-1.405-.245-.555-.366-1.191-.366-1.906,0-.691.12-1.319.358-1.879.238-.562.561-1.039.97-1.431.409-.391.891-.694,1.447-.91.555-.215,1.157-.324,1.804-.324.624,0,1.197.106,1.719.315.522.21.969.514,1.344.91.374.398.666.881.877,1.447.21.568.315,1.214.315,1.94v.34c0,.113-.006.222-.018.324h-6.144c.023.238.094.453.214.646ZM30.952,18.034c0,.165-.006.33-.016.492-.776.215-1.486.588-2.093,1.083.143-.501.221-1.029.221-1.576,0-.259-.019-.512-.052-.763.566-.288,1.173-.507,1.808-.647.085.457.131.928.131,1.409ZM15.731,18.034c0-4.196,3.413-7.61,7.61-7.61,3.499,0,6.453,2.375,7.339,5.596-.626.137-1.225.346-1.789.618-.624-2.486-2.871-4.327-5.55-4.327-3.161,0-5.723,2.562-5.723,5.723,0,2.148,1.183,4.018,2.933,4.997-.453.446-.856.943-1.197,1.484-2.173-1.342-3.624-3.744-3.624-6.481ZM23.852,23.734c-.839.401-1.565,1.002-2.117,1.74-.647-.14-1.263-.361-1.837-.654.352-.552.773-1.056,1.25-1.499.676.281,1.417.436,2.194.436.172,0,.342-.009.51-.023ZM26.32,36.508c-4.196,0-7.61-3.414-7.61-7.61,0-1.277.317-2.482.875-3.541.561.289,1.159.515,1.786.669-.491.844-.773,1.825-.773,2.871,0,3.16,2.562,5.723,5.723,5.723,1.946,0,3.663-.972,4.698-2.456.466.082.946.126,1.436.126.233,0,.464-.01.692-.03-1.243,2.514-3.836,4.247-6.825,4.247ZM33.431,31.606c-.321.042-.647.063-.978.063-.368,0-.73-.026-1.084-.078.297-.556.506-1.167.606-1.814.164.014.329.023.497.023.492,0,.968-.063,1.424-.179-.066.693-.225,1.358-.464,1.985ZM34.136,31.481c.217-.655.354-1.347.399-2.064,1.819-.7,3.191-2.298,3.572-4.252h-3.798v-1.762h3.867c-.325-2.863-2.754-5.086-5.704-5.086-.309,0-.611.025-.907.071.005-.117.009-.236.009-.355,0-.518-.049-1.025-.141-1.517.334-.045.674-.068,1.02-.068,4.196,0,7.61,3.414,7.61,7.61,0,3.618-2.538,6.655-5.928,7.422Z"/><path d="M28.735,21.813c-.273,0-.523.043-.749.128-.228.085-.426.201-.595.349-.171.148-.307.321-.409.519-.102.198-.158.406-.171.621h3.591c0-.443-.139-.822-.417-1.141s-.694-.477-1.25-.477Z"/><g class="cls-1"><path d="M129.145,13.801h1.354v8.694h-1.354v-8.694ZM130.549,13.801h.459l.845,8.694h-.459l-.845-8.694ZM132.748,13.801h.459l-.845,8.694h-.459l.845-8.694ZM133.257,13.801h1.366v8.694h-1.366v-8.694Z"/><path d="M139.751,13.801v6.645c0,.473.422.808.82.808s.82-.335.82-.808v-6.645h1.366v6.694c0,1.168-1.056,2.074-2.186,2.074s-2.186-.906-2.186-2.074v-6.694h1.366Z"/><path d="M148.332,13.801v8.694h-1.366v-8.694h1.366ZM148.854,13.801l1.292,8.694h-.472l-1.292-8.694h.472ZM151.562,13.801v8.694h-1.366v-8.694h1.366Z"/><path d="M157.261,22.011v-7.726h-1.168v-.484h3.714v.484h-1.18v7.726h1.18v.484h-3.714v-.484h1.168Z"/></g><g class="cls-1"><path d="M129.816,32.915v-4.694c0-1.192.969-2.074,2.149-2.074,1.192,0,2.149.882,2.149,2.074v.322h-.671v-.311c0-.807-.708-1.44-1.478-1.44-.795,0-1.478.634-1.478,1.44v4.671c0,.807.683,1.44,1.478,1.44.77,0,1.478-.634,1.478-1.44v-.286h.671v.298c0,1.229-.957,2.074-2.149,2.074-1.18,0-2.149-.845-2.149-2.074Z"/><path d="M138.67,26.22h4.148v.621h-3.478v3.204h3.329v.621h-3.329v3.627h3.478v.621h-4.148v-8.694Z"/><path d="M149.574,26.22c1.13,0,2.074.943,2.074,2.074v.869c0,1.056-.807,1.913-1.826,2l2.124,3.751h-.771l-2.062-3.677h-1.13v3.677h-.671v-8.694h2.261ZM150.99,29.089v-.782c0-.82-.683-1.466-1.478-1.466h-1.528v3.764h1.528c.832,0,1.478-.621,1.478-1.516Z"/><path d="M157.621,34.48v-7.825h-1.515v-.435h3.701v.435h-1.515v7.825h1.515v.435h-3.701v-.435h1.515Z"/><path d="M163.992,26.841v-.621h5.316v.621h-2.323v8.073h-.671v-8.073h-2.323Z"/><path d="M177.193,30.045v.621h-3.701v-.621h3.701Z"/><path d="M181.887,32.915v-.298h.671v.286c0,.807.708,1.44,1.491,1.44.77,0,1.465-.634,1.465-1.44v-.51c0-1.031-.845-1.316-1.64-1.49-.757-.174-1.987-.634-1.987-2.087v-.596c0-1.192.957-2.074,2.149-2.074s2.149.882,2.149,2.074v.322h-.671v-.311c0-.807-.708-1.44-1.478-1.44-.782,0-1.478.634-1.478,1.44v.584c0,1.019.857,1.305,1.615,1.479.82.186,2.012.67,2.012,2.086v.534c0,1.229-.957,2.074-2.149,2.074s-2.149-.845-2.149-2.074Z"/><path d="M190.666,32.915v-4.694c0-1.192.969-2.074,2.149-2.074,1.192,0,2.149.882,2.149,2.074v.322h-.671v-.311c0-.807-.708-1.44-1.478-1.44-.795,0-1.478.634-1.478,1.44v4.671c0,.807.683,1.44,1.478,1.44.77,0,1.478-.634,1.478-1.44v-.286h.671v.298c0,1.229-.957,2.074-2.149,2.074-1.18,0-2.149-.845-2.149-2.074Z"/></g><path class="cls-3" d="M408.92,18.711v.52h-2.564v-.52h.988v-2.871h-.97v-.526h2.528v.526h-.97v2.871h.987Z"/><path class="cls-3" d="M411.291,15.839v3.391h-.595v-3.391h-1.16v-.526h2.915v.526h-1.16Z"/><path class="cls-3" d="M414.789,18.414v.816h-.559v-.816h-1.773l-.06-.387c.21-.439.473-.904.788-1.393.315-.49.634-.93.955-1.321h.648v2.599h.571v.502h-.571ZM413.004,17.913h1.225v-1.995c-.234.31-.456.637-.666.979-.21.343-.397.681-.559,1.016Z"/><path class="cls-3" d="M418.429,18.711v.52h-2.564v-.52h.988v-2.871h-.97v-.526h2.528v.526h-.97v2.871h.987Z"/><path class="cls-3" d="M421.683,19.23h-.732l-1.267-3.125v3.125h-.529v-3.917h.726l1.273,3.131v-3.131h.529v3.917Z"/><path class="cls-3" d="M425.074,19.23h-.732l-1.267-3.125v3.125h-.529v-3.917h.726l1.273,3.131v-3.131h.529v3.917Z"/><path class="cls-3" d="M428.666,17.29c0,.649-.124,1.145-.372,1.487-.248.343-.606.514-1.074.514-.48,0-.84-.169-1.08-.508s-.36-.848-.36-1.529c0-.645.125-1.139.375-1.484.25-.345.605-.517,1.065-.517.484,0,.846.169,1.086.508.24.338.36.848.36,1.529ZM426.4,17.254c0,.516.066.895.199,1.136.133.242.34.363.622.363.286,0,.495-.119.628-.357.133-.238.199-.607.199-1.106,0-.508-.066-.883-.199-1.127-.133-.244-.342-.366-.628-.366s-.494.117-.625.351c-.131.234-.196.603-.196,1.106Z"/><path class="cls-3" d="M432.021,15.313l-1.077,3.917h-.851l-1.077-3.917h.625l.886,3.439.886-3.439h.607Z"/><path class="cls-3" d="M435.198,19.23h-.613l-.286-1.04h-1.327l-.286,1.04h-.589l1.124-3.917h.851l1.124,3.917ZM433.639,15.749l-.529,1.928h1.053l-.524-1.928Z"/><path class="cls-3" d="M436.966,15.839v3.391h-.595v-3.391h-1.16v-.526h2.915v.526h-1.16Z"/><path class="cls-3" d="M441.308,18.711v.52h-2.564v-.52h.988v-2.871h-.97v-.526h2.528v.526h-.97v2.871h.987Z"/><path class="cls-3" d="M444.698,17.29c0,.649-.124,1.145-.372,1.487-.248.343-.606.514-1.074.514-.48,0-.84-.169-1.08-.508s-.36-.848-.36-1.529c0-.645.125-1.139.375-1.484.25-.345.605-.517,1.065-.517.484,0,.846.169,1.086.508.24.338.36.848.36,1.529ZM442.432,17.254c0,.516.066.895.199,1.136.133.242.34.363.622.363.286,0,.495-.119.628-.357.133-.238.199-.607.199-1.106,0-.508-.066-.883-.199-1.127-.133-.244-.342-.366-.628-.366s-.494.117-.625.351c-.131.234-.196.603-.196,1.106Z"/><path class="cls-3" d="M447.936,19.23h-.732l-1.267-3.125v3.125h-.529v-3.917h.726l1.273,3.131v-3.131h.529v3.917Z"/><path class="cls-3" d="M451.241,18.185c0,.335-.117.602-.351.804s-.549.302-.946.302c-.222,0-.45-.032-.684-.097-.234-.065-.444-.155-.631-.272l.256-.478c.19.113.373.196.547.248.174.053.349.079.524.079.214,0,.381-.047.5-.142s.179-.231.179-.408c0-.129-.048-.244-.143-.345-.095-.101-.305-.221-.631-.363-.218-.097-.379-.175-.482-.236-.103-.06-.19-.123-.262-.187-.115-.105-.2-.221-.256-.347-.055-.127-.083-.269-.083-.426,0-.314.111-.57.333-.768.222-.197.513-.296.874-.296.21,0,.416.028.619.085.202.057.399.139.589.248l-.238.477c-.174-.097-.341-.168-.5-.214s-.313-.07-.464-.07c-.191,0-.34.046-.449.139-.109.093-.164.216-.164.369,0,.129.049.243.146.341.097.099.308.221.634.366.214.101.373.18.476.239.103.058.19.12.262.184.119.105.206.221.262.347.056.127.083.267.083.42Z"/><path class="cls-3" d="M408.902,26.484h-.732l-1.267-3.125v3.125h-.529v-3.917h.726l1.273,3.131v-3.131h.529v3.917Z"/><path class="cls-3" d="M412.591,26.484h-.613l-.286-1.04h-1.327l-.286,1.04h-.589l1.124-3.917h.851l1.124,3.917ZM411.032,23.002l-.529,1.928h1.053l-.524-1.928Z"/><path class="cls-3" d="M414.359,23.093v3.391h-.595v-3.391h-1.16v-.526h2.915v.526h-1.16Z"/><path class="cls-3" d="M418.701,25.964v.52h-2.564v-.52h.988v-2.871h-.97v-.526h2.528v.526h-.97v2.871h.987Z"/><path class="cls-3" d="M422.091,24.544c0,.649-.124,1.145-.372,1.487-.248.343-.606.514-1.074.514-.48,0-.84-.169-1.08-.508s-.36-.848-.36-1.529c0-.645.125-1.139.375-1.484.25-.345.605-.517,1.065-.517.484,0,.846.169,1.086.508.24.338.36.848.36,1.529ZM419.825,24.508c0,.516.066.895.199,1.136.133.242.34.363.622.363.286,0,.495-.119.628-.357.133-.238.199-.607.199-1.106,0-.508-.066-.883-.199-1.127-.133-.244-.342-.366-.628-.366s-.494.117-.625.351c-.131.234-.196.603-.196,1.106Z"/><path class="cls-3" d="M425.33,26.484h-.732l-1.267-3.125v3.125h-.529v-3.917h.726l1.273,3.131v-3.131h.529v3.917Z"/><path class="cls-3" d="M429.018,26.484h-.613l-.286-1.04h-1.327l-.286,1.04h-.589l1.124-3.917h.851l1.124,3.917ZM427.46,23.002l-.529,1.928h1.053l-.524-1.928Z"/><path class="cls-3" d="M430.291,25.964h1.808v.52h-2.409v-3.917h.601v3.397Z"/><path class="cls-3" d="M437.233,25.438c0,.335-.117.602-.351.804s-.549.302-.946.302c-.222,0-.45-.032-.684-.097-.234-.065-.444-.155-.631-.272l.256-.478c.19.113.373.196.547.248.174.053.349.079.524.079.214,0,.381-.047.5-.142s.179-.231.179-.408c0-.129-.048-.244-.143-.345-.095-.101-.305-.221-.631-.363-.218-.097-.379-.175-.482-.236-.103-.06-.19-.123-.262-.187-.115-.105-.2-.221-.256-.347-.055-.127-.083-.269-.083-.426,0-.314.111-.57.333-.768.222-.197.513-.296.874-.296.21,0,.416.028.619.085.202.057.399.139.589.248l-.238.477c-.174-.097-.341-.168-.5-.214s-.313-.07-.464-.07c-.191,0-.34.046-.449.139-.109.093-.164.216-.164.369,0,.129.049.243.146.341.097.099.308.221.634.366.214.101.373.18.476.239.103.058.19.12.262.184.119.105.206.221.262.347.056.127.083.267.083.42Z"/><path class="cls-3" d="M439.253,26.007c.226,0,.4-.065.524-.193.123-.129.184-.312.184-.55v-2.696h.583v2.696c0,.387-.118.697-.354.931-.236.234-.548.351-.937.351-.393,0-.709-.117-.949-.351-.24-.234-.36-.544-.36-.931v-2.696h.601v2.696c0,.238.061.421.184.55.123.129.298.193.524.193Z"/><path class="cls-3" d="M442.021,24.991v1.493h-.601v-3.917h1.303c.401,0,.72.106.958.317s.357.503.357.873c0,.391-.118.694-.354.91s-.556.323-.961.323h-.702ZM443.431,23.77c0-.214-.065-.38-.193-.499-.129-.119-.306-.178-.532-.178h-.684v1.378h.684c.234,0,.414-.061.538-.181.125-.121.188-.294.188-.52Z"/><path class="cls-3" d="M445.372,25.964h1.743v.52h-2.344v-3.917h2.344v.526h-1.743v1.142h1.481v.526h-1.481v1.203Z"/><path class="cls-3" d="M448.474,24.882v1.602h-.601v-3.917h1.315c.393,0,.705.101.937.302.232.202.348.48.348.834,0,.278-.066.511-.199.698-.133.187-.324.319-.574.396l.916,1.686h-.678l-.839-1.602h-.625ZM449.866,23.716c0-.197-.061-.351-.181-.459-.121-.109-.289-.163-.503-.163h-.708v1.263h.708c.218,0,.387-.055.506-.166s.178-.269.178-.475Z"/><path class="cls-3" d="M452.715,26.545c-.52,0-.915-.173-1.187-.52-.272-.347-.408-.852-.408-1.517,0-.625.142-1.114.425-1.469.284-.355.675-.532,1.175-.532.202,0,.391.025.565.076.174.05.347.13.517.239l-.273.477c-.135-.085-.269-.147-.402-.188-.133-.04-.265-.06-.396-.06-.329,0-.577.122-.744.366s-.25.607-.25,1.091c0,.504.081.879.244,1.127s.412.372.749.372c.155,0,.295-.02.422-.061.127-.04.273-.113.44-.217l.256.447c-.167.121-.347.213-.541.275-.194.062-.393.094-.595.094Z"/><path class="cls-3" d="M457.116,24.544c0,.649-.124,1.145-.372,1.487-.248.343-.606.514-1.074.514-.48,0-.84-.169-1.08-.508-.24-.339-.36-.848-.36-1.529,0-.645.125-1.139.375-1.484.25-.345.605-.517,1.065-.517.484,0,.846.169,1.086.508.24.338.36.848.36,1.529ZM454.85,24.508c0,.516.066.895.199,1.136s.34.363.622.363c.286,0,.495-.119.628-.357.133-.238.199-.607.199-1.106,0-.508-.066-.883-.199-1.127-.133-.244-.342-.366-.628-.366s-.493.117-.625.351c-.131.234-.196.603-.196,1.106Z"/><path class="cls-3" d="M458.27,23.389v3.095h-.529v-3.917h.696l.75,1.971.737-1.971h.69v3.917h-.53v-3.095l-.69,1.795h-.434l-.69-1.795Z"/><path class="cls-3" d="M462.028,24.991v1.493h-.601v-3.917h1.303c.401,0,.72.106.958.317s.357.503.357.873c0,.391-.118.694-.354.91-.236.216-.556.323-.961.323h-.702ZM463.438,23.77c0-.214-.065-.38-.193-.499-.129-.119-.306-.178-.532-.178h-.684v1.378h.684c.234,0,.414-.061.538-.181s.188-.294.188-.52Z"/><path class="cls-3" d="M465.989,26.007c.226,0,.4-.065.524-.193.123-.129.184-.312.184-.55v-2.696h.583v2.696c0,.387-.118.697-.354.931-.236.234-.548.351-.937.351-.393,0-.709-.117-.949-.351-.24-.234-.36-.544-.36-.931v-2.696h.601v2.696c0,.238.062.421.185.55.123.129.297.193.523.193Z"/><path class="cls-3" d="M469.652,23.093v3.391h-.595v-3.391h-1.16v-.526h2.915v.526h-1.16Z"/><path class="cls-3" d="M473.994,25.964v.52h-2.564v-.52h.988v-2.871h-.97v-.526h2.528v.526h-.969v2.871h.987Z"/><path class="cls-3" d="M477.247,26.484h-.731l-1.267-3.125v3.125h-.53v-3.917h.726l1.273,3.131v-3.131h.529v3.917Z"/><path class="cls-3" d="M479.589,26.545c-.527,0-.929-.172-1.204-.517-.276-.344-.414-.851-.414-1.52,0-.633.141-1.124.422-1.475.281-.351.676-.526,1.183-.526.199,0,.382.022.554.067.17.044.337.115.5.211l-.262.49c-.123-.072-.251-.128-.383-.166-.133-.038-.265-.057-.396-.057-.337,0-.588.12-.752.36-.165.24-.247.606-.247,1.097,0,.504.083.879.25,1.127s.42.372.761.372c.103,0,.197-.008.282-.024.085-.016.172-.042.259-.079v-1.324h.571v1.614c-.155.109-.331.195-.53.257-.198.062-.397.094-.595.094Z"/><path class="cls-3" d="M407.933,33.798c-.52,0-.915-.173-1.187-.52-.272-.347-.408-.852-.408-1.517,0-.625.142-1.114.425-1.469.284-.355.675-.532,1.175-.532.202,0,.391.025.565.076.175.05.347.13.518.239l-.274.477c-.135-.085-.269-.147-.402-.188-.133-.04-.265-.06-.396-.06-.329,0-.577.122-.744.366s-.25.607-.25,1.091c0,.504.081.879.244,1.127s.412.372.749.372c.155,0,.295-.02.422-.061.127-.04.274-.113.44-.217l.256.447c-.167.121-.347.213-.541.275-.194.062-.393.094-.595.094Z"/><path class="cls-3" d="M410.398,33.218h1.743v.52h-2.344v-3.917h2.344v.526h-1.743v1.142h1.481v.526h-1.481v1.203Z"/><path class="cls-3" d="M415.415,33.738h-.732l-1.267-3.125v3.125h-.529v-3.917h.726l1.273,3.131v-3.131h.529v3.917Z"/><path class="cls-3" d="M417.803,30.347v3.391h-.595v-3.391h-1.16v-.526h2.915v.526h-1.16Z"/><path class="cls-3" d="M420.281,33.218h1.743v.52h-2.344v-3.917h2.344v.526h-1.743v1.142h1.481v.526h-1.481v1.203Z"/><path class="cls-3" d="M423.382,32.136v1.602h-.601v-3.917h1.315c.393,0,.705.101.937.302.232.202.348.48.348.834,0,.278-.066.511-.199.698-.133.187-.324.319-.574.396l.916,1.686h-.678l-.839-1.602h-.625ZM424.774,30.969c0-.197-.061-.351-.181-.459-.121-.109-.289-.163-.503-.163h-.708v1.263h.708c.218,0,.387-.055.506-.166s.178-.269.178-.475Z"/><rect class="cls-3" x="401.691" y="15.316" width=".612" height="18.462"/><rect class="cls-3" x="348.122" y="22.5" width=".612" height="7.26"/><rect class="cls-3" x="355.175" y="24.489" width=".612" height="7.264"/><rect class="cls-3" x="357.526" y="22.5" width=".612" height="7.26"/><rect class="cls-3" x="352.824" y="26.486" width=".612" height="7.261"/><rect class="cls-3" x="350.473" y="24.489" width=".612" height="7.261"/><path class="cls-3" d="M351.064,15.313l-1.035,3.917h-1.017l-1.035-3.917h.744l.815,3.331.809-3.331h.72Z"/><path class="cls-3" d="M354.52,18.155c0,.347-.119.622-.357.828s-.561.308-.97.308c-.226,0-.46-.032-.702-.097-.242-.065-.46-.155-.654-.272l.286-.593c.194.113.38.196.556.251.176.054.352.082.526.082.186,0,.331-.039.434-.118s.155-.192.155-.342c0-.113-.044-.212-.131-.299-.087-.087-.282-.194-.583-.323-.226-.097-.392-.176-.497-.239-.105-.062-.195-.128-.271-.196-.115-.105-.2-.223-.256-.354-.055-.131-.083-.277-.083-.438,0-.326.115-.591.345-.795.23-.203.533-.305.91-.305.218,0,.432.029.642.088.21.058.41.142.601.251l-.262.586c-.182-.097-.354-.169-.515-.217s-.316-.072-.467-.072c-.163,0-.291.038-.384.115s-.14.177-.14.302c0,.113.045.214.134.302.089.089.286.202.592.339.218.101.379.181.482.242.103.06.19.125.262.193.119.101.206.216.262.344.055.129.083.272.083.429Z"/><path class="cls-3" d="M355.627,15.313h1.267c.397,0,.708.085.934.254.226.169.339.407.339.713,0,.206-.05.385-.152.538-.101.153-.245.27-.431.351.242.072.425.186.55.342.125.155.187.347.187.577,0,.355-.12.634-.36.837s-.562.305-.967.305h-1.368v-3.917ZM357.423,16.395c0-.161-.051-.28-.152-.357-.101-.076-.257-.115-.467-.115h-.458v.997h.458c.206,0,.361-.044.464-.133.103-.088.155-.22.155-.393ZM357.578,18.052c0-.189-.058-.327-.175-.414-.117-.087-.303-.13-.556-.13h-.5v1.118h.535c.234,0,.408-.047.523-.142.115-.095.173-.239.173-.432Z"/><path class="cls-3" d="M364.276,15.827v3.391h-.595v-3.391h-1.16v-.526h2.915v.526h-1.16Z"/><path class="cls-3" d="M367.051,18.698h1.743v.52h-2.344v-3.917h2.344v.526h-1.743v1.142h1.481v.526h-1.481v1.203Z"/><path class="cls-3" d="M371.342,19.279c-.52,0-.915-.173-1.187-.52-.272-.347-.408-.852-.408-1.517,0-.625.142-1.114.425-1.469.284-.355.675-.532,1.175-.532.202,0,.39.025.565.076.175.05.347.13.518.239l-.274.477c-.135-.085-.269-.147-.402-.188-.133-.04-.264-.06-.396-.06-.329,0-.577.122-.743.366s-.25.607-.25,1.091c0,.504.081.879.244,1.127.162.248.412.372.749.372.155,0,.295-.02.422-.061.127-.04.274-.113.44-.217l.255.447c-.167.121-.347.213-.541.275s-.393.094-.595.094Z"/><path class="cls-3" d="M374.123,17.441v1.777h-.601v-3.917h.601v1.614h1.41v-1.614h.601v3.917h-.601v-1.777h-1.41Z"/><path class="cls-3" d="M379.924,19.218h-.732l-1.267-3.125v3.125h-.529v-3.917h.726l1.273,3.131v-3.131h.529v3.917Z"/><path class="cls-3" d="M383.566,18.698v.52h-2.564v-.52h.988v-2.871h-.97v-.526h2.528v.526h-.969v2.871h.987Z"/><path class="cls-3" d="M386.013,19.279c-.52,0-.915-.173-1.187-.52-.272-.347-.408-.852-.408-1.517,0-.625.142-1.114.425-1.469.284-.355.675-.532,1.175-.532.202,0,.391.025.565.076.174.05.347.13.517.239l-.273.477c-.135-.085-.269-.147-.402-.188-.133-.04-.265-.06-.396-.06-.329,0-.577.122-.744.366s-.25.607-.25,1.091c0,.504.081.879.244,1.127.163.248.412.372.75.372.155,0,.295-.02.422-.061.127-.04.273-.113.44-.217l.256.447c-.167.121-.347.213-.541.275-.195.062-.393.094-.595.094Z"/><path class="cls-3" d="M390.966,19.218h-.613l-.286-1.04h-1.326l-.286,1.04h-.589l1.124-3.917h.851l1.124,3.917ZM389.408,15.736l-.529,1.928h1.053l-.524-1.928Z"/><path class="cls-3" d="M392.597,18.698h1.808v.52h-2.409v-3.917h.601v3.397Z"/><path class="cls-3" d="M363.991,25.995c.226,0,.4-.065.523-.193.123-.129.185-.312.185-.55v-2.696h.583v2.696c0,.387-.118.697-.354.931-.236.234-.548.351-.937.351-.393,0-.709-.117-.949-.351-.24-.234-.36-.544-.36-.931v-2.696h.601v2.696c0,.238.061.421.184.55.123.129.298.193.524.193Z"/><path class="cls-3" d="M369.067,26.472h-.732l-1.267-3.125v3.125h-.529v-3.917h.726l1.273,3.131v-3.131h.529v3.917Z"/><path class="cls-3" d="M372.71,25.952v.52h-2.564v-.52h.988v-2.871h-.97v-.526h2.528v.526h-.97v2.871h.988Z"/><path class="cls-3" d="M376.369,22.555l-1.077,3.917h-.851l-1.077-3.917h.625l.886,3.439.886-3.439h.607Z"/><path class="cls-3" d="M377.963,25.952h1.743v.52h-2.344v-3.917h2.344v.526h-1.743v1.142h1.481v.526h-1.481v1.203Z"/><path class="cls-3" d="M381.481,24.87v1.602h-.601v-3.917h1.315c.393,0,.705.101.937.302.232.202.348.48.348.834,0,.278-.066.511-.199.698-.133.187-.324.319-.574.396l.916,1.686h-.678l-.839-1.602h-.625ZM382.873,23.703c0-.197-.061-.351-.181-.459-.121-.109-.289-.163-.503-.163h-.708v1.263h.708c.218,0,.387-.055.506-.166.119-.111.178-.269.178-.475Z"/><path class="cls-3" d="M387.055,25.426c0,.335-.117.602-.351.804-.234.202-.549.302-.946.302-.222,0-.45-.032-.684-.097-.234-.065-.444-.155-.631-.272l.256-.478c.19.113.372.196.547.248.174.053.349.079.523.079.214,0,.381-.047.5-.142.119-.095.179-.231.179-.408,0-.129-.048-.244-.143-.345-.095-.101-.305-.221-.631-.363-.218-.097-.379-.175-.482-.236-.103-.06-.19-.123-.261-.187-.115-.105-.201-.221-.256-.347-.056-.127-.083-.269-.083-.426,0-.314.111-.57.333-.768.222-.197.513-.296.874-.296.21,0,.416.028.619.085.202.057.399.139.589.248l-.238.477c-.174-.097-.341-.168-.499-.214-.159-.046-.313-.07-.464-.07-.191,0-.34.046-.449.139-.109.093-.164.216-.164.369,0,.129.049.243.146.341.097.099.309.221.634.366.214.101.372.18.476.239.103.058.19.12.261.184.119.105.206.221.262.347s.083.267.083.42Z"/><path class="cls-3" d="M390.543,25.952v.52h-2.564v-.52h.988v-2.871h-.97v-.526h2.528v.526h-.969v2.871h.987Z"/><path class="cls-3" d="M392.973,23.081v3.391h-.595v-3.391h-1.16v-.526h2.915v.526h-1.16Z"/><path class="cls-3" d="M396.472,24.955v1.517h-.601v-1.517l-1.231-2.4h.642l.904,1.832.898-1.832h.607l-1.219,2.4Z"/><path class="cls-3" d="M365.424,31.785c0,.649-.124,1.145-.372,1.487-.248.343-.605.514-1.074.514-.48,0-.84-.169-1.08-.508-.24-.339-.36-.848-.36-1.529,0-.645.125-1.139.375-1.484.25-.345.605-.517,1.065-.517.484,0,.846.169,1.085.508.24.338.36.848.36,1.529ZM363.158,31.749c0,.516.066.895.199,1.136.133.242.34.363.622.363.285,0,.495-.119.628-.357s.199-.607.199-1.106c0-.508-.066-.883-.199-1.127s-.342-.366-.628-.366-.494.117-.625.351c-.131.234-.196.603-.196,1.106Z"/><path class="cls-3" d="M367.24,32.063v1.662h-.595v-3.917h2.338v.526h-1.743v1.203h1.481v.526h-1.481Z"/><path class="cls-3" d="M374.664,31.785c0,.649-.124,1.145-.372,1.487-.248.343-.606.514-1.074.514-.48,0-.84-.169-1.08-.508-.24-.339-.36-.848-.36-1.529,0-.645.125-1.139.375-1.484.25-.345.605-.517,1.065-.517.484,0,.846.169,1.086.508.24.338.36.848.36,1.529ZM372.398,31.749c0,.516.066.895.199,1.136s.34.363.622.363c.286,0,.495-.119.628-.357.133-.238.199-.607.199-1.106,0-.508-.066-.883-.199-1.127-.133-.244-.342-.366-.628-.366s-.493.117-.625.351c-.131.234-.196.603-.196,1.106Z"/><path class="cls-3" d="M378.075,32.68c0,.335-.117.602-.351.804-.234.202-.549.302-.946.302-.222,0-.45-.032-.684-.097-.234-.065-.444-.155-.631-.272l.256-.478c.19.113.372.196.547.248.174.053.349.079.523.079.214,0,.381-.047.5-.142.119-.095.179-.231.179-.408,0-.129-.048-.244-.143-.345-.095-.101-.305-.221-.631-.363-.218-.097-.379-.175-.482-.236-.103-.06-.19-.123-.261-.187-.115-.105-.201-.221-.256-.347-.056-.127-.083-.269-.083-.426,0-.314.111-.57.333-.768.222-.197.513-.296.874-.296.21,0,.416.028.619.085.202.057.399.139.589.248l-.238.477c-.174-.097-.341-.168-.499-.214-.159-.046-.313-.07-.464-.07-.191,0-.34.046-.449.139-.109.093-.164.216-.164.369,0,.129.049.243.146.341.097.099.309.221.634.366.214.101.372.18.476.239.103.058.19.12.261.184.119.105.206.221.262.347s.083.267.083.42Z"/><path class="cls-3" d="M380.497,30.334v3.391h-.595v-3.391h-1.16v-.526h2.915v.526h-1.16Z"/><path class="cls-3" d="M383.262,32.124v1.602h-.601v-3.917h1.314c.393,0,.705.101.937.302.232.202.348.48.348.834,0,.278-.066.511-.199.698-.133.187-.324.319-.574.396l.916,1.686h-.678l-.839-1.602h-.625ZM384.655,30.957c0-.197-.061-.351-.182-.459s-.288-.163-.502-.163h-.708v1.263h.708c.218,0,.387-.055.505-.166.119-.111.179-.269.179-.475Z"/><path class="cls-3" d="M389.275,33.726h-.613l-.286-1.04h-1.326l-.286,1.04h-.589l1.124-3.917h.851l1.124,3.917ZM387.716,30.244l-.529,1.928h1.053l-.524-1.928Z"/><path class="cls-3" d="M392.592,29.809l-1.077,3.917h-.851l-1.077-3.917h.625l.886,3.439.886-3.439h.607Z"/><path class="cls-3" d="M396.007,33.726h-.613l-.285-1.04h-1.327l-.285,1.04h-.589l1.124-3.917h.851l1.124,3.917ZM394.448,30.244l-.529,1.928h1.053l-.523-1.928Z"/><path class="cls-2" d="M305.18,17.259v-2.391h-2.858v-2.954h-2.914l.002,2.954h-2v2.391h2v5.278c0,.558.052,1.086.156,1.57.104.49.3.929.58,1.306.281.378.669.68,1.152.898.481.216,1.113.326,1.878.326.317,0,.656-.028,1.008-.084.351-.056.658-.133.915-.228l.036-.014-.1-2.355-.072.032c-.171.078-.366.137-.582.175-.217.039-.422.059-.609.059-.611,0-1.008-.158-1.179-.472-.177-.323-.267-.739-.267-1.236v-5.254h2.856Z"/><path class="cls-2" d="M251.759,19.437c.073-.765.397-1.402.964-1.894.582-.505,1.304-.76,2.142-.76.45,0,.848.074,1.18.221.332.147.61.346.826.593.215.247.376.537.477.861.096.311.146.639.151.978h-5.742ZM258.879,16.11c-.496-.52-1.091-.916-1.769-1.179-.678-.263-1.425-.397-2.221-.397-.859,0-1.67.149-2.411.444-.741.295-1.392.715-1.934,1.249-.541.534-.974,1.188-1.285,1.945-.311.757-.468,1.608-.468,2.531,0,.938.157,1.79.468,2.531.31.741.747,1.376,1.298,1.887.55.51,1.209.911,1.957,1.189.748.279,1.579.42,2.47.42,2.15,0,3.813-.776,4.945-2.306l.03-.041-1.989-1.591-.032.047c-.311.451-.714.81-1.195,1.066-.482.257-1.083.386-1.784.386-.404,0-.798-.071-1.171-.211-.374-.14-.713-.334-1.009-.574-.296-.241-.535-.532-.712-.864-.17-.317-.274-.671-.31-1.052h8.675l.006-.047c.016-.129.024-.259.024-.388v-.38c0-1.032-.141-1.947-.42-2.719-.279-.773-.671-1.428-1.165-1.947"/><path class="cls-2" d="M241.737,18.166c.256-.341.583-.621.971-.83.387-.209.843-.315,1.355-.315.449,0,.898.106,1.333.316.434.209.763.472.979.78l.034.049,1.996-1.753.039-.034-.033-.04c-.465-.56-1.1-1.005-1.89-1.324-.789-.318-1.617-.48-2.459-.48s-1.647.145-2.387.432c-.741.286-1.399.699-1.958,1.225-.559.527-1.007,1.173-1.333,1.921-.327.749-.493,1.597-.493,2.52,0,.956.166,1.819.493,2.568.326.748.778,1.395,1.345,1.922.565.526,1.236.93,1.993,1.201.756.27,1.566.407,2.41.407.859,0,1.67-.141,2.411-.42.742-.279,1.361-.68,1.841-1.191l.035-.038-1.821-1.846-.042-.042-.037.046c-.264.325-.617.576-1.05.746-.435.171-.877.258-1.313.258-.528,0-.997-.105-1.391-.315-.396-.21-.731-.489-.995-.83-.265-.343-.466-.734-.598-1.161-.133-.429-.2-.868-.2-1.305s.063-.877.188-1.306c.124-.427.318-.818.574-1.161"/><path class="cls-2" d="M282.359,15.983c-.345-.433-.792-.786-1.327-1.05-.537-.264-1.19-.398-1.939-.398-.863,0-1.623.224-2.256.664-.59.411-1.021.887-1.284,1.417v-1.748h-2.82v11.529h2.962v-6.336c0-.374.056-.75.165-1.116.108-.364.269-.691.479-.971.209-.279.48-.51.804-.687.325-.177.717-.267,1.165-.267s.809.093,1.077.276c.269.184.483.422.637.707.155.286.257.613.304.969.047.36.071.71.071,1.04v6.383h2.962v-7.193c0-.588-.081-1.17-.24-1.728-.16-.559-.415-1.062-.759-1.494"/><path class="cls-2" d="M265.456,17.063c.371-.186.788-.28,1.238-.28.512,0,.992.122,1.426.362.435.241.782.529,1.03.854l.035.045,1.937-1.713-.031-.039c-.465-.592-1.102-1.039-1.892-1.326-.788-.286-1.607-.432-2.434-.432-.573,0-1.138.073-1.679.216-.543.144-1.037.367-1.468.662-.433.296-.787.683-1.051,1.148-.265.466-.4,1.027-.4,1.668,0,.546.098,1.011.292,1.381.193.371.454.685.776.934.32.248.689.451,1.097.603.405.151.827.276,1.256.371.863.204,1.52.411,1.952.616.42.198.624.517.624.975,0,.242-.053.449-.158.614-.106.166-.248.301-.422.399-.177.1-.372.174-.58.22-.209.046-.417.07-.619.07-.608,0-1.168-.134-1.665-.398-.498-.265-.909-.604-1.22-1.009l-.036-.047-1.961,1.837.036.039c.559.607,1.27,1.079,2.114,1.405.844.326,1.723.492,2.613.492.62,0,1.228-.069,1.809-.203.583-.135,1.101-.358,1.541-.663.442-.305.799-.707,1.064-1.196.265-.49.399-1.095.399-1.798,0-.562-.115-1.047-.341-1.443-.225-.393-.522-.728-.883-.992-.36-.263-.764-.478-1.204-.637-.437-.159-.875-.288-1.303-.383-.802-.189-1.419-.375-1.835-.556-.403-.175-.599-.466-.599-.891s.177-.722.542-.904"/><path class="cls-2" d="M287.931,19.437c.073-.765.397-1.402.964-1.894.582-.505,1.304-.76,2.143-.76.45,0,.848.074,1.18.221.332.147.61.346.826.593.215.247.376.537.477.861.096.311.147.639.152.978h-5.742ZM295.051,16.11c-.496-.52-1.091-.916-1.769-1.179-.678-.263-1.425-.397-2.221-.397-.859,0-1.67.149-2.411.444-.741.295-1.391.715-1.934,1.249-.541.534-.974,1.188-1.285,1.945-.311.757-.468,1.608-.468,2.531,0,.938.157,1.79.468,2.531.31.741.747,1.376,1.298,1.887.55.51,1.209.911,1.957,1.189.748.279,1.579.42,2.47.42,2.15,0,3.813-.776,4.945-2.306l.03-.041-1.989-1.591-.032.047c-.312.451-.714.81-1.195,1.066-.482.257-1.083.386-1.784.386-.404,0-.798-.071-1.171-.211-.374-.14-.713-.334-1.008-.574-.295-.241-.535-.532-.712-.864-.17-.317-.274-.671-.311-1.052h8.676l.006-.047c.016-.129.024-.259.024-.388v-.38c0-1.032-.141-1.947-.42-2.719-.279-.773-.671-1.428-1.165-1.947"/><rect class="cls-2" x="267.387" y="31.158" width="2.963" height="2.964"/><rect class="cls-2" x="262.624" y="31.158" width="2.963" height="2.964"/><rect class="cls-2" x="257.861" y="34.122" width="2.963" height="2.964"/><rect class="cls-2" x="253.098" y="34.122" width="2.963" height="2.964"/><rect class="cls-2" x="248.335" y="34.122" width="2.963" height="2.964"/><rect class="cls-2" x="238.809" y="31.158" width="2.963" height="2.964"/><rect class="cls-2" x="243.572" y="31.158" width="2.963" height="2.964"/></svg>