<?xml version="1.0" encoding="UTF-8"?>
<svg id="Vrstva_1" xmlns="http://www.w3.org/2000/svg" xmlns:xlink="http://www.w3.org/1999/xlink" version="1.1" viewBox="0 0 494.57 47.65">
  <!-- Generator: Adobe Illustrator 29.4.0, SVG Export Plug-In . SVG Version: 2.1.0 Build 152)  -->
  <defs>
    <style>
      .st0 {
        fill: none;
      }

      .st1 {
        fill: #2b2b2a;
      }

      .st2, .st3 {
        isolation: isolate;
      }

      .st4 {
        clip-path: url(#clippath-1);
      }

      .st3 {
        font-family: Avenir-Book, Avenir;
        font-size: 10px;
      }

      .st5 {
        clip-path: url(#clippath);
      }
    </style>
    <clipPath id="clippath">
      <rect class="st0" x="150.34" y="-6.12" width="167.73" height="57.73"/>
    </clipPath>
    <clipPath id="clippath-1">
      <rect class="st0" x="150.34" y="-6.12" width="167.73" height="57.73"/>
    </clipPath>
  </defs>
  <g>
    <path d="M98.3,38.31c-.23.12-.49.18-.79.18s-.54-.05-.77-.15c-.23-.1-.42-.24-.59-.42-.16-.18-.29-.39-.38-.64-.09-.25-.13-.53-.13-.83,0-.29.05-.55.14-.8.09-.24.22-.46.39-.64s.37-.33.6-.43c.23-.1.49-.16.78-.16.22,0,.45.05.69.14s.42.24.57.43l.75-.59c-.11-.15-.24-.27-.4-.37-.16-.1-.32-.19-.5-.26-.18-.07-.36-.12-.55-.16s-.38-.05-.55-.05c-.43,0-.82.07-1.19.2s-.68.33-.95.58-.48.55-.63.91c-.15.36-.23.75-.23,1.2s.07.83.22,1.18.35.66.61.92.57.46.93.6.76.21,1.19.21c.47,0,.89-.09,1.24-.25.35-.17.65-.41.9-.71l-.79-.55c-.14.19-.33.35-.55.46h0Z"/>
    <polygon points="105.88 34.59 105.88 33.7 101.75 33.7 101.75 34.56 104.71 34.56 101.71 38.33 101.71 39.22 105.93 39.22 105.93 38.35 102.86 38.35 105.88 34.59"/>
    <rect x="50.84" y="18.47" width="2.62" height="10.8"/>
    <polygon points="65.33 25.52 65.29 25.52 60.96 18.47 57.98 18.47 57.98 29.27 60.51 29.27 60.45 22.2 60.5 22.2 64.85 29.27 67.81 29.27 67.81 18.47 65.27 18.47 65.33 25.52"/>
    <polygon points="72.32 29.27 74.9 29.27 74.9 25.07 79.08 25.07 79.08 22.92 74.9 22.92 74.9 20.69 79.43 20.69 79.43 18.47 72.32 18.47 72.32 29.27"/>
    <path d="M91.05,23.58c.4-.5.6-1.11.6-1.85,0-.62-.12-1.14-.35-1.56-.23-.42-.55-.75-.94-1.01s-.83-.44-1.33-.54c-.49-.11-1-.16-1.52-.16h-4.12v10.8h2.55v-4.29h.89l2.34,4.29h3.05l-2.82-4.62c.7-.21,1.25-.57,1.65-1.07ZM88.9,22.45c-.12.17-.27.3-.45.4-.18.09-.39.15-.61.19-.22.04-.45.05-.66.05h-1.24v-2.52h1.4c.19,0,.4.02.6.05.21.03.4.09.57.18.17.09.31.21.41.37.11.16.16.36.16.62,0,.27-.06.5-.18.67Z"/>
    <path d="M98.1,27.15h4.18l.84,2.12h2.9l-4.49-10.8h-2.53l-4.53,10.8h2.84l.79-2.12ZM100.22,21.35l1.34,3.71h-2.72l1.37-3.71Z"/>
    <path d="M39.3,13.58c-.47,0-.94.03-1.39.1-1.13-4.21-4.98-7.33-9.54-7.33-5.45,0-9.88,4.43-9.88,9.88,0,3.56,1.89,6.68,4.72,8.42-.73,1.38-1.15,2.95-1.15,4.62,0,5.45,4.43,9.88,9.88,9.88,4.05,0,7.54-2.45,9.06-5.95,4.64-.81,8.17-4.86,8.17-9.73,0-5.45-4.43-9.88-9.88-9.88h0ZM32.78,25.56c.14.23.33.43.55.6.22.17.48.3.76.4.28.09.57.14.87.14.53,0,.98-.1,1.35-.3.37-.2.67-.45.9-.77l2.33,1.47c-.48.69-1.11,1.23-1.89,1.6-.78.37-1.69.56-2.73.56-.76,0-1.49-.12-2.17-.36-.68-.24-1.28-.58-1.79-1.04-.51-.46-.91-1.02-1.2-1.69-.29-.67-.44-1.43-.44-2.29s.14-1.58.43-2.25c.29-.67.67-1.25,1.16-1.72.49-.47,1.07-.83,1.74-1.09.67-.26,1.39-.39,2.16-.39s1.44.13,2.06.38c.63.25,1.16.62,1.61,1.09.45.48.8,1.06,1.05,1.74.25.68.38,1.46.38,2.33v.41c0,.14,0,.27-.02.39h-7.37c.03.29.11.54.26.78h0ZM37.5,16.23c0,.2,0,.4-.02.59-.93.26-1.78.71-2.51,1.3.17-.6.27-1.23.27-1.89,0-.31-.02-.61-.06-.92.68-.35,1.41-.61,2.17-.78.1.55.16,1.11.16,1.69h0ZM19.23,16.23c0-5.04,4.1-9.13,9.13-9.13,4.2,0,7.74,2.85,8.81,6.72-.75.16-1.47.42-2.15.74-.75-2.98-3.45-5.19-6.66-5.19-3.79,0-6.87,3.07-6.87,6.87,0,2.58,1.42,4.82,3.52,6-.54.54-1.03,1.13-1.44,1.78-2.61-1.61-4.35-4.49-4.35-7.78h0ZM28.98,23.07c-1.01.48-1.88,1.2-2.54,2.09-.78-.17-1.52-.43-2.2-.78.42-.66.93-1.27,1.5-1.8.81.34,1.7.52,2.63.52.21,0,.41-.01.61-.03ZM31.94,38.39c-5.04,0-9.13-4.1-9.13-9.13,0-1.53.38-2.98,1.05-4.25.67.35,1.39.62,2.14.8-.59,1.01-.93,2.19-.93,3.45,0,3.79,3.07,6.87,6.87,6.87,2.34,0,4.4-1.17,5.64-2.95.56.1,1.14.15,1.72.15.28,0,.56-.01.83-.04-1.49,3.02-4.6,5.1-8.19,5.1h0ZM40.47,32.51c-.39.05-.78.08-1.17.08-.44,0-.88-.03-1.3-.09.36-.67.61-1.4.73-2.18.2.02.39.03.6.03.59,0,1.16-.08,1.71-.21-.08.83-.27,1.63-.56,2.38h0ZM41.32,32.36c.26-.79.42-1.62.48-2.48,2.18-.84,3.83-2.76,4.29-5.1h-4.56v-2.11h4.64c-.39-3.44-3.3-6.1-6.84-6.1-.37,0-.73.03-1.09.09,0-.14.01-.28.01-.43,0-.62-.06-1.23-.17-1.82.4-.05.81-.08,1.22-.08,5.04,0,9.13,4.1,9.13,9.13,0,4.34-3.05,7.99-7.11,8.91h0Z"/>
    <path d="M34.84,20.76c-.33,0-.63.05-.9.15-.27.1-.51.24-.71.42-.21.18-.37.39-.49.62-.12.24-.19.49-.21.75h4.31c0-.53-.17-.99-.5-1.37s-.83-.57-1.5-.57h0Z"/>
  </g>
  <g class="st5">
    <rect class="st1" x="189.55" y="34.18" width="2.84" height="2.84"/>
    <rect class="st1" x="184.97" y="37.03" width="2.84" height="2.84" transform="translate(-.05 .26) rotate(-.08)"/>
    <rect class="st1" x="180.4" y="34.18" width="2.84" height="2.84"/>
    <rect class="st1" x="175.82" y="34.18" width="2.84" height="2.84"/>
    <rect class="st1" x="171.25" y="37.03" width="2.84" height="2.84" transform="translate(-.05 .24) rotate(-.08)"/>
    <rect class="st1" x="162.1" y="34.18" width="2.84" height="2.84" transform="translate(-.04 .17) rotate(-.06)"/>
    <rect class="st1" x="166.67" y="34.18" width="2.84" height="2.84"/>
    <g class="st4">
      <path class="st1" d="M270.53,28.32c-.02-.45-.02-.83-.02-1.12v-8.38h-1.66v5.53c0,.71-.09,1.33-.27,1.84-.18.52-.42.95-.72,1.28-.3.33-.64.59-1.02.75-.38.16-.78.25-1.18.25-.55,0-1.02-.09-1.38-.27-.36-.18-.66-.43-.87-.75-.22-.32-.37-.71-.46-1.16-.09-.45-.14-.96-.14-1.52v-5.96h-1.65v6.6c0,1.33.35,2.42,1.03,3.23.68.82,1.72,1.23,3.09,1.23.77,0,1.5-.2,2.19-.59.65-.37,1.14-.85,1.45-1.44,0,.21,0,.46.02.75.01.34.04.67.07.96v.05h1.59v-.06c-.03-.36-.06-.77-.07-1.23M220.93,27.04l-.03.04c-.3.4-.68.74-1.15.99-.46.25-1.04.38-1.71.38-.61,0-1.18-.11-1.67-.33-.49-.22-.92-.52-1.26-.9-.34-.38-.61-.83-.8-1.34-.19-.51-.28-1.07-.28-1.67s.09-1.17.28-1.68c.19-.52.46-.97.81-1.35.35-.38.78-.68,1.27-.9.49-.22,1.06-.33,1.67-.33.57,0,1.1.13,1.59.39.48.26.86.6,1.11,1l.03.05,1.3-.93-.03-.04c-.46-.61-1.07-1.08-1.81-1.4-.74-.31-1.48-.47-2.2-.47-.87,0-1.67.14-2.37.43-.7.28-1.31.68-1.81,1.19-.5.5-.89,1.11-1.16,1.8-.27.69-.41,1.45-.41,2.26s.14,1.57.41,2.26c.28.69.67,1.29,1.16,1.8.5.51,1.11.9,1.81,1.19.7.28,1.5.43,2.37.43.93,0,1.74-.17,2.41-.51.67-.33,1.23-.79,1.69-1.36l.03-.04-1.21-.9-.04-.03ZM224.47,23.34c.03-.43.15-.85.33-1.24.19-.41.46-.78.79-1.1.33-.32.72-.58,1.15-.77.43-.19.91-.28,1.42-.28,1.09,0,1.94.33,2.53.98.58.64.9,1.45.95,2.41h-7.17ZM232.01,20.13c-.43-.48-.97-.87-1.62-1.15-.64-.28-1.4-.43-2.24-.43-.76,0-1.49.14-2.14.43-.66.28-1.24.68-1.73,1.19-.49.5-.88,1.11-1.15,1.8-.28.69-.41,1.45-.41,2.26s.14,1.57.43,2.26c.28.69.67,1.29,1.16,1.8.49.51,1.08.91,1.76,1.19.68.28,1.43.43,2.22.43.89,0,1.73-.18,2.5-.53.77-.35,1.49-.94,2.13-1.75l.03-.04-1.25-.98-.03.05c-.3.48-.74.91-1.32,1.27-.57.37-1.27.55-2.06.55-.54,0-1.05-.1-1.51-.3s-.87-.48-1.22-.82c-.34-.34-.62-.75-.81-1.22-.19-.45-.29-.93-.31-1.44h8.85v-.05c.02-.14.03-.27.03-.39v-.34c0-.73-.11-1.43-.33-2.07-.22-.64-.55-1.21-.98-1.69M240.23,18.55c-.77,0-1.5.2-2.19.59-.65.37-1.14.86-1.45,1.44,0-.2,0-.45-.02-.75-.01-.35-.04-.68-.07-.96v-.05h-1.59v.06c.03.36.06.78.07,1.23.02.45.02.83.02,1.12v8.38h1.66v-5.53c0-.71.09-1.33.27-1.84.18-.52.42-.95.72-1.28.3-.33.64-.59,1.02-.75.38-.16.78-.25,1.18-.25.55,0,1.02.09,1.38.27.36.18.65.43.87.75.22.32.37.71.46,1.16.09.45.14.96.14,1.52v5.96h1.66v-6.6c0-1.33-.35-2.42-1.03-3.23-.68-.81-1.72-1.23-3.09-1.23M252.07,27.98c-.21.11-.43.19-.66.25-.48.12-.92.11-1.29.01-.19-.05-.35-.15-.49-.28-.14-.14-.25-.33-.32-.58-.07-.25-.11-.58-.11-.97v-6.18h3.01v-1.4h-3.01v-3.01h-1.65v3.01h-2.22v1.4h2.22v6.61c0,.6.09,1.09.27,1.46.18.37.41.67.69.89.28.22.58.37.91.44.32.08.63.12.93.12.35,0,.68-.03.98-.08.3-.05.59-.14.86-.24h.04s-.08-1.47-.08-1.47l-.07.03ZM207.92,24.95c0,.85-.24,1.53-.72,2.02-.47.49-1.18.74-2.11.74-.22,0-.45-.02-.67-.07-.22-.04-.42-.12-.6-.22-.17-.1-.32-.24-.43-.41-.11-.17-.16-.38-.16-.62,0-.39.13-.71.39-.93.27-.23.61-.41,1.01-.54.4-.13.85-.21,1.34-.25.48-.04.95-.06,1.39-.06h.57v.34ZM209.63,19.73c-.37-.45-.88-.81-1.51-1.09-.64-.28-1.45-.42-2.43-.42-.84,0-1.68.15-2.49.44-.82.29-1.55.73-2.17,1.31l-.04.03,1.48,1.75.04-.04c.34-.34.78-.64,1.31-.88.52-.24,1.08-.36,1.65-.36.67,0,1.26.16,1.74.48.48.32.72.81.72,1.48v.22c-.83,0-1.69.04-2.57.13-.89.08-1.71.26-2.44.52-.74.26-1.34.64-1.81,1.13-.47.5-.71,1.17-.71,2,0,.65.14,1.2.41,1.64.27.44.61.8,1.02,1.07.41.27.86.46,1.34.58.48.11.95.17,1.39.17.78,0,1.49-.16,2.1-.47.6-.3,1.04-.7,1.32-1.17v1.37h2.66v-6.72c0-.55-.07-1.11-.22-1.66-.15-.55-.41-1.06-.78-1.5M183.78,22.93c.07-.73.38-1.34.93-1.82.56-.48,1.25-.73,2.06-.73.43,0,.81.07,1.13.21.32.14.59.33.79.57.21.24.36.51.46.83.09.3.14.61.14.94h-5.51ZM190.61,19.74c-.48-.5-1.05-.88-1.7-1.13-.65-.25-1.37-.38-2.13-.38-.82,0-1.6.14-2.31.43-.71.28-1.33.69-1.86,1.2-.52.51-.93,1.14-1.23,1.87-.3.73-.45,1.54-.45,2.43s.15,1.72.45,2.43c.3.71.72,1.32,1.25,1.81.53.49,1.16.87,1.88,1.14.72.27,1.52.4,2.37.4,2.06,0,3.66-.74,4.74-2.21l.03-.04-1.91-1.53-.03.05c-.3.43-.68.78-1.15,1.02-.46.25-1.04.37-1.71.37-.39,0-.77-.07-1.12-.2-.36-.13-.68-.32-.97-.55-.28-.23-.51-.51-.68-.83-.16-.3-.26-.64-.3-1.01h8.32v-.05c.02-.12.03-.25.03-.37v-.37c0-.99-.14-1.87-.4-2.61-.27-.74-.64-1.37-1.12-1.87M178.37,19.62c-.33-.41-.76-.75-1.27-1.01-.52-.25-1.14-.38-1.86-.38-.83,0-1.56.18-2.17.54-.59.35-1.07.84-1.43,1.48-.31-.59-.73-1.07-1.27-1.44-.57-.39-1.29-.58-2.15-.58-.44,0-.86.06-1.23.17-.37.12-.7.27-.98.47-.28.2-.53.42-.74.67-.18.21-.33.44-.45.68v-1.68h-2.71v11.06h2.84v-6.08c0-.36.05-.72.15-1.07.1-.35.24-.66.43-.93.19-.27.43-.49.73-.66.3-.17.65-.26,1.05-.26.68,0,1.18.22,1.5.65.32.44.48,1,.48,1.67v6.67h2.84v-6.03c0-.34.05-.7.14-1.05.09-.35.23-.67.43-.95.19-.28.44-.52.74-.69.3-.18.66-.27,1.07-.27s.78.09,1.03.26c.26.18.46.41.61.68.15.28.25.59.29.93.05.35.07.68.07,1v6.12h2.84v-6.9c0-.56-.08-1.12-.23-1.66-.15-.54-.4-1.02-.73-1.43M259.28,18.57c-.16-.01-.34-.02-.54-.02-.77,0-1.47.2-2.08.59-.58.37-1.03.85-1.34,1.44,0-.2,0-.45-.02-.75-.02-.35-.04-.68-.07-.96v-.05h-1.59v.06c.03.36.06.78.07,1.23.01.45.02.83.02,1.12v8.38h1.65v-5.52c0-.7.09-1.32.26-1.82.17-.5.4-.92.67-1.24.27-.32.6-.55.97-.7.37-.15.77-.22,1.17-.22.21,0,.42.01.63.04.21.03.36.06.45.09l.06.02.22-1.59h-.04c-.17-.06-.34-.09-.5-.1M288.58,19.78c-.68-.81-1.72-1.23-3.09-1.23-.87,0-1.64.2-2.28.59-.61.37-1.1.91-1.46,1.6-.18-.41-.38-.76-.62-1.03-.25-.29-.53-.53-.83-.71-.3-.18-.61-.3-.93-.36-.31-.06-.62-.09-.91-.09-.78,0-1.5.2-2.14.59-.6.37-1.06.85-1.37,1.44,0-.2-.01-.45-.02-.75-.01-.35-.04-.68-.07-.96v-.05h-1.59v.06c.04.36.06.78.07,1.23.02.45.02.83.02,1.12v8.38h1.66v-5.53c0-.71.09-1.33.27-1.84.18-.52.42-.95.71-1.28.29-.34.62-.59.99-.75.36-.16.73-.25,1.09-.25.51,0,.93.08,1.26.23.32.15.58.38.77.67.19.29.32.65.39,1.07.07.42.11.9.11,1.41v6.28h1.65v-5.74c0-.5.05-.98.16-1.45.1-.46.28-.88.51-1.25.23-.36.54-.66.92-.88.38-.22.85-.33,1.4-.33.98,0,1.68.34,2.09,1,.41.67.62,1.58.62,2.69v5.96h1.65v-6.6c0-1.33-.35-2.42-1.03-3.23M197.1,15.38h-2.8v3.17h-1.92v2.29h1.92v5.06c0,.53.05,1.04.15,1.51.1.47.29.89.56,1.25.27.36.64.65,1.1.86.46.21,1.07.31,1.8.31.3,0,.63-.03.97-.08.34-.05.63-.13.88-.22h.04s-.1-2.27-.1-2.27l-.07.03c-.16.07-.35.13-.56.17-.21.04-.4.06-.58.06-.59,0-.97-.15-1.13-.45-.17-.31-.26-.71-.26-1.19v-5.04h2.74v-2.29h-2.74v-3.17Z"/>
      <path class="st1" d="M306.32,8.29v-1.19h-1.42v-1.47h-1.45v1.47s-.99,0-.99,0v1.19h.99v2.62c0,.28.03.54.08.78.05.24.15.46.29.65.14.19.33.34.57.45.24.11.55.16.93.16.16,0,.33-.01.5-.04.17-.03.33-.07.45-.11h.02s-.05-1.18-.05-1.18l-.04.02c-.08.04-.18.07-.29.09-.11.02-.21.03-.3.03-.3,0-.5-.08-.59-.23-.09-.16-.13-.37-.13-.61v-2.61h1.42Z"/>
      <path class="st1" d="M279.79,9.38c.04-.38.2-.7.48-.94.29-.25.65-.38,1.07-.38.22,0,.42.04.59.11.16.07.3.17.41.29.11.12.19.27.24.43.05.15.07.32.08.49h-2.85ZM283.32,7.72c-.25-.26-.54-.46-.88-.59-.34-.13-.71-.2-1.1-.2-.43,0-.83.07-1.2.22-.37.15-.69.35-.96.62-.27.27-.48.59-.64.97-.15.38-.23.8-.23,1.26s.08.89.23,1.26c.15.37.37.68.65.94.27.25.6.45.97.59.37.14.79.21,1.23.21,1.07,0,1.89-.39,2.46-1.15v-.02s-.97-.79-.97-.79l-.02.02c-.15.22-.35.4-.59.53-.24.13-.54.19-.89.19-.2,0-.4-.04-.58-.1-.19-.07-.35-.17-.5-.29-.15-.12-.27-.26-.35-.43-.08-.16-.14-.33-.15-.52h4.31v-.02c.01-.06.01-.13.01-.19v-.19c0-.51-.07-.97-.21-1.35-.14-.38-.33-.71-.58-.97"/>
      <path class="st1" d="M274.81,8.74c.13-.17.29-.31.48-.41.19-.1.42-.16.67-.16.22,0,.45.05.66.16.21.1.38.23.49.39l.02.02.99-.87.02-.02-.02-.02c-.23-.28-.55-.5-.94-.66-.39-.16-.8-.24-1.22-.24s-.82.07-1.19.21c-.37.14-.69.35-.97.61-.28.26-.5.58-.66.95-.16.37-.24.79-.24,1.25s.08.9.24,1.27c.16.37.39.69.67.95.28.26.61.46.99.6.38.13.78.2,1.2.2s.83-.07,1.2-.21c.37-.14.68-.34.91-.59l.02-.02-.91-.92-.02-.02-.02.02c-.13.16-.31.29-.52.37-.22.08-.44.13-.65.13-.26,0-.49-.05-.69-.16-.2-.1-.36-.24-.49-.41-.13-.17-.23-.36-.3-.58-.07-.21-.1-.43-.1-.65s.03-.44.09-.65c.06-.21.16-.41.29-.58"/>
      <path class="st1" d="M294.99,7.66c-.17-.21-.39-.39-.66-.52-.27-.13-.59-.2-.96-.2-.43,0-.81.11-1.12.33-.29.2-.51.44-.64.7v-.87h-1.4v5.73h1.47v-3.15c0-.19.03-.37.08-.55.05-.18.13-.34.24-.48.1-.14.24-.25.4-.34.16-.09.36-.13.58-.13s.4.05.53.14c.13.09.24.21.32.35.08.14.13.3.15.48.02.18.04.35.04.52v3.17h1.47v-3.57c0-.29-.04-.58-.12-.86-.08-.28-.21-.53-.38-.74"/>
      <path class="st1" d="M286.59,8.2c.18-.09.39-.14.61-.14.25,0,.49.06.71.18.22.12.39.26.51.42l.02.02.96-.85-.02-.02c-.23-.29-.55-.52-.94-.66-.39-.14-.8-.21-1.21-.21-.28,0-.57.04-.83.11-.27.07-.52.18-.73.33-.21.15-.39.34-.52.57-.13.23-.2.51-.2.83,0,.27.05.5.14.69.1.18.23.34.39.46.16.12.34.22.55.3.2.07.41.14.62.18.43.1.76.2.97.31.21.1.31.26.31.48,0,.12-.03.22-.08.3-.05.08-.12.15-.21.2-.09.05-.19.09-.29.11-.1.02-.21.04-.31.04-.3,0-.58-.07-.83-.2-.25-.13-.45-.3-.61-.5l-.02-.02-.97.91.02.02c.28.3.63.54,1.05.7.42.16.86.24,1.3.24.31,0,.61-.03.9-.1.29-.07.55-.18.77-.33.22-.15.4-.35.53-.59.13-.24.2-.54.2-.89,0-.28-.06-.52-.17-.72-.11-.19-.26-.36-.44-.49-.18-.13-.38-.24-.6-.32-.22-.08-.43-.14-.65-.19-.4-.09-.7-.19-.91-.28-.2-.09-.3-.23-.3-.44s.09-.36.27-.45"/>
      <path class="st1" d="M297.76,9.38c.04-.38.2-.7.48-.94.29-.25.65-.38,1.06-.38.22,0,.42.04.59.11.16.07.3.17.41.29.11.12.19.27.24.43.05.15.07.32.07.49h-2.85ZM301.29,7.72c-.25-.26-.54-.46-.88-.59-.34-.13-.71-.2-1.1-.2-.43,0-.83.07-1.2.22-.37.15-.69.35-.96.62-.27.27-.48.59-.64.97-.15.38-.23.8-.23,1.26s.08.89.23,1.26c.15.37.37.68.65.94.27.25.6.45.97.59.37.14.79.21,1.23.21,1.07,0,1.89-.39,2.46-1.15v-.02s-.97-.79-.97-.79l-.02.02c-.15.22-.35.4-.59.53-.24.13-.54.19-.89.19-.2,0-.4-.04-.58-.1-.19-.07-.35-.17-.5-.29-.15-.12-.27-.26-.35-.43-.08-.16-.14-.33-.15-.52h4.31v-.02c.01-.06.01-.13.01-.19v-.19c0-.51-.07-.97-.21-1.35-.14-.38-.33-.71-.58-.97"/>
    </g>
  </g>
  <g class="st2">
    <text class="st3" transform="translate(359.92 19.66)"><tspan x="0" y="0">MetaCentrum Support</tspan></text>
    <text class="st3" transform="translate(360.06 34.65)"><tspan x="0" y="0">e-mail: meta@cesnet.cz</tspan></text>
  </g>
</svg>